<?xml version="1.0" encoding="UTF-8"?>
<svg id="_Layer_1" data-name="#Layer 1" xmlns="http://www.w3.org/2000/svg" xmlns:xlink="http://www.w3.org/1999/xlink" viewBox="0 0 528 520">
  <defs>
    <style>
      .cls-1 {
        fill: url(#linear-gradient-24);
      }

      .cls-1, .cls-2, .cls-3, .cls-4, .cls-5, .cls-6, .cls-7, .cls-8, .cls-9, .cls-10, .cls-11, .cls-12, .cls-13, .cls-14, .cls-15, .cls-16, .cls-17, .cls-18, .cls-19, .cls-20, .cls-21, .cls-22, .cls-23, .cls-24, .cls-25 {
        fill-rule: evenodd;
      }

      .cls-2 {
        fill: url(#linear-gradient-13);
      }

      .cls-3 {
        fill: url(#linear-gradient-15);
      }

      .cls-4 {
        fill: url(#linear-gradient-19);
      }

      .cls-5 {
        fill: url(#linear-gradient-10);
      }

      .cls-26 {
        fill: url(#linear-gradient-2);
      }

      .cls-6 {
        fill: url(#linear-gradient-26);
      }

      .cls-27 {
        fill: url(#linear-gradient-3);
      }

      .cls-7 {
        fill: url(#linear-gradient-27);
      }

      .cls-28 {
        fill: none;
        stroke: #1a1a1a;
        stroke-miterlimit: 2.61;
        stroke-width: 4.25px;
      }

      .cls-8 {
        fill: url(#linear-gradient-5);
      }

      .cls-9 {
        fill: url(#linear-gradient-18);
      }

      .cls-10 {
        fill: url(#linear-gradient-21);
      }

      .cls-11 {
        fill: url(#linear-gradient-20);
      }

      .cls-12 {
        fill: url(#linear-gradient-23);
      }

      .cls-13 {
        fill: url(#linear-gradient-16);
      }

      .cls-14 {
        fill: url(#linear-gradient-9);
      }

      .cls-15 {
        fill: url(#linear-gradient-12);
      }

      .cls-16 {
        fill: url(#linear-gradient-6);
      }

      .cls-17 {
        fill: url(#linear-gradient-4);
      }

      .cls-18 {
        fill: url(#linear-gradient-25);
      }

      .cls-19 {
        fill: url(#linear-gradient-7);
      }

      .cls-20 {
        fill: url(#linear-gradient-8);
      }

      .cls-21 {
        fill: url(#linear-gradient-22);
      }

      .cls-22 {
        fill: url(#linear-gradient-17);
      }

      .cls-23 {
        fill: url(#linear-gradient-14);
      }

      .cls-24 {
        fill: url(#linear-gradient-11);
      }

      .cls-25 {
        fill: url(#linear-gradient);
      }
    </style>
    <linearGradient id="linear-gradient" x1="262.23" y1="5916.73" x2="262.23" y2="6726.78" gradientTransform="translate(0 6508) scale(1 -1)" gradientUnits="userSpaceOnUse">
      <stop offset="0" stop-color="#f4c761"/>
      <stop offset=".28" stop-color="#a97f2c"/>
      <stop offset=".36" stop-color="#230b0a"/>
      <stop offset=".46" stop-color="#6d4c1e"/>
      <stop offset=".51" stop-color="#1a0b05"/>
      <stop offset=".53" stop-color="#f8f1de"/>
      <stop offset=".86" stop-color="#f3e3c2"/>
      <stop offset="1" stop-color="#d0ab5b"/>
    </linearGradient>
    <linearGradient id="linear-gradient-2" x1="68.08" y1="6250.85" x2="456.39" y2="6250.85" gradientTransform="translate(0 6508) scale(1 -1)" gradientUnits="userSpaceOnUse">
      <stop offset="0" stop-color="#dba73e"/>
      <stop offset=".16" stop-color="#e0c77d"/>
      <stop offset=".54" stop-color="#f4f3b8"/>
      <stop offset=".56" stop-color="#f7ed9a"/>
      <stop offset=".69" stop-color="#dbc276"/>
      <stop offset=".84" stop-color="#f4f3b8"/>
      <stop offset="1" stop-color="#e0c77d"/>
    </linearGradient>
    <linearGradient id="linear-gradient-3" x1="277.51" y1="6222.61" x2="246.97" y2="6273.44" gradientTransform="translate(0 6508) scale(1 -1)" gradientUnits="userSpaceOnUse">
      <stop offset="0" stop-color="#000002"/>
      <stop offset="1" stop-color="#5c5b5c"/>
    </linearGradient>
    <linearGradient id="linear-gradient-4" x1="77.24" y1="6268.65" x2="112" y2="6227.23" gradientTransform="translate(0 6508) scale(1 -1)" gradientUnits="userSpaceOnUse">
      <stop offset="0" stop-color="#482a0f"/>
      <stop offset=".1" stop-color="#a77129"/>
      <stop offset=".15" stop-color="#fff"/>
      <stop offset=".22" stop-color="#da9e41"/>
      <stop offset=".34" stop-color="#8e5923"/>
      <stop offset=".5" stop-color="#d8a64d"/>
      <stop offset=".66" stop-color="#f5e380"/>
      <stop offset=".72" stop-color="#dac164"/>
      <stop offset=".83" stop-color="#fff"/>
      <stop offset=".92" stop-color="#a0752b"/>
      <stop offset="1" stop-color="#664219"/>
    </linearGradient>
    <linearGradient id="linear-gradient-5" x1="86.61" y1="6249.4" x2="80.52" y2="6224.98" gradientTransform="translate(0 6508) scale(1 -1)" gradientUnits="userSpaceOnUse">
      <stop offset="0" stop-color="#8a6026"/>
      <stop offset="1" stop-color="#fff1ab"/>
    </linearGradient>
    <linearGradient id="linear-gradient-6" x1="80.79" y1="6222.55" x2="94.89" y2="6235.7" gradientTransform="translate(0 6508) scale(1 -1)" gradientUnits="userSpaceOnUse">
      <stop offset="0" stop-color="#7d4d1f"/>
      <stop offset="1" stop-color="#e0b745"/>
    </linearGradient>
    <linearGradient id="linear-gradient-7" x1="101.78" y1="6227.19" x2="104.79" y2="6232.2" gradientTransform="translate(0 6508) scale(1 -1)" gradientUnits="userSpaceOnUse">
      <stop offset="0" stop-color="#7d4d1f"/>
      <stop offset="1" stop-color="#e0b745"/>
    </linearGradient>
    <linearGradient id="linear-gradient-8" x1="104.8" y1="6248.48" x2="109.49" y2="6228.17" gradientTransform="translate(0 6508) scale(1 -1)" gradientUnits="userSpaceOnUse">
      <stop offset="0" stop-color="#8a6026"/>
      <stop offset="1" stop-color="#fff1ab"/>
    </linearGradient>
    <linearGradient id="linear-gradient-9" x1="107.04" y1="6243.85" x2="131.13" y2="6267.94" gradientTransform="translate(0 6508) scale(1 -1)" gradientUnits="userSpaceOnUse">
      <stop offset="0" stop-color="#7d4d1f"/>
      <stop offset="1" stop-color="#e0b745"/>
    </linearGradient>
    <linearGradient id="linear-gradient-10" x1="100.9" y1="6256.31" x2="117.02" y2="6253.75" gradientTransform="translate(0 6508) scale(1 -1)" gradientUnits="userSpaceOnUse">
      <stop offset="0" stop-color="#f8d367"/>
      <stop offset="1" stop-color="#fff1ab"/>
    </linearGradient>
    <linearGradient id="linear-gradient-11" x1="80.87" y1="6242.44" x2="68.4" y2="6258.99" gradientTransform="translate(0 6508) scale(1 -1)" gradientUnits="userSpaceOnUse">
      <stop offset="0" stop-color="#8a6026"/>
      <stop offset="1" stop-color="#fff1ab"/>
    </linearGradient>
    <linearGradient id="linear-gradient-12" x1="70.48" y1="6252.44" x2="94.83" y2="6255.43" gradientTransform="translate(0 6508) scale(1 -1)" gradientUnits="userSpaceOnUse">
      <stop offset="0" stop-color="#7d4d1f"/>
      <stop offset="1" stop-color="#e0b745"/>
    </linearGradient>
    <linearGradient id="linear-gradient-13" x1="87.96" y1="6256.41" x2="98.91" y2="6281.02" gradientTransform="translate(0 6508) scale(1 -1)" gradientUnits="userSpaceOnUse">
      <stop offset="0" stop-color="#8a6026"/>
      <stop offset="1" stop-color="#fff1ab"/>
    </linearGradient>
    <linearGradient id="linear-gradient-14" x1="108.01" y1="6239.15" x2="95.91" y2="6266.32" gradientTransform="translate(0 6508) scale(1 -1)" gradientUnits="userSpaceOnUse">
      <stop offset="0" stop-color="#7d4d1f"/>
      <stop offset="1" stop-color="#fff1ab"/>
    </linearGradient>
    <linearGradient id="linear-gradient-15" x1="116.06" y1="6251.92" x2="73.39" y2="6241.28" gradientTransform="translate(0 6508) scale(1 -1)" gradientUnits="userSpaceOnUse">
      <stop offset="0" stop-color="#482a0f"/>
      <stop offset=".1" stop-color="#a77129"/>
      <stop offset=".15" stop-color="#fff"/>
      <stop offset=".4" stop-color="#8e5923"/>
      <stop offset=".5" stop-color="#d8a64d"/>
      <stop offset=".59" stop-color="#f5e380"/>
      <stop offset=".77" stop-color="#fff"/>
      <stop offset=".88" stop-color="#a0752b"/>
      <stop offset="1" stop-color="#664219"/>
    </linearGradient>
    <linearGradient id="linear-gradient-16" x1="412.46" y1="6269.11" x2="447.99" y2="6226.77" gradientTransform="translate(0 6508) scale(1 -1)" gradientUnits="userSpaceOnUse">
      <stop offset="0" stop-color="#482a0f"/>
      <stop offset=".1" stop-color="#a77129"/>
      <stop offset=".15" stop-color="#fff"/>
      <stop offset=".22" stop-color="#da9e41"/>
      <stop offset=".34" stop-color="#8e5923"/>
      <stop offset=".5" stop-color="#d8a64d"/>
      <stop offset=".66" stop-color="#f5e380"/>
      <stop offset=".72" stop-color="#dac164"/>
      <stop offset=".83" stop-color="#fff"/>
      <stop offset=".92" stop-color="#a0752b"/>
      <stop offset="1" stop-color="#664219"/>
    </linearGradient>
    <linearGradient id="linear-gradient-17" x1="422.14" y1="6249.12" x2="416.19" y2="6225.26" gradientTransform="translate(0 6508) scale(1 -1)" gradientUnits="userSpaceOnUse">
      <stop offset="0" stop-color="#8a6026"/>
      <stop offset="1" stop-color="#fff1ab"/>
    </linearGradient>
    <linearGradient id="linear-gradient-18" x1="416.25" y1="6222.7" x2="430.58" y2="6235.6" gradientTransform="translate(0 6508) scale(1 -1)" gradientUnits="userSpaceOnUse">
      <stop offset="0" stop-color="#7d4d1f"/>
      <stop offset="1" stop-color="#e0b745"/>
    </linearGradient>
    <linearGradient id="linear-gradient-19" x1="437.47" y1="6227.22" x2="440.39" y2="6232.28" gradientTransform="translate(0 6508) scale(1 -1)" gradientUnits="userSpaceOnUse">
      <stop offset="0" stop-color="#7d4d1f"/>
      <stop offset="1" stop-color="#e0b745"/>
    </linearGradient>
    <linearGradient id="linear-gradient-20" x1="440.73" y1="6248.24" x2="444.94" y2="6228.42" gradientTransform="translate(0 6508) scale(1 -1)" gradientUnits="userSpaceOnUse">
      <stop offset="0" stop-color="#8a6026"/>
      <stop offset="1" stop-color="#fff1ab"/>
    </linearGradient>
    <linearGradient id="linear-gradient-21" x1="442.64" y1="6243.85" x2="466.73" y2="6267.94" gradientTransform="translate(0 6508) scale(1 -1)" gradientUnits="userSpaceOnUse">
      <stop offset="0" stop-color="#7d4d1f"/>
      <stop offset="1" stop-color="#e0b745"/>
    </linearGradient>
    <linearGradient id="linear-gradient-22" x1="436.27" y1="6256.34" x2="452.86" y2="6253.71" gradientTransform="translate(0 6508) scale(1 -1)" gradientUnits="userSpaceOnUse">
      <stop offset="0" stop-color="#f8d367"/>
      <stop offset="1" stop-color="#fff1ab"/>
    </linearGradient>
    <linearGradient id="linear-gradient-23" x1="416.56" y1="6242.14" x2="404.04" y2="6259.37" gradientTransform="translate(0 6508) scale(1 -1)" gradientUnits="userSpaceOnUse">
      <stop offset="0" stop-color="#8a6026"/>
      <stop offset="1" stop-color="#fff1ab"/>
    </linearGradient>
    <linearGradient id="linear-gradient-24" x1="406.37" y1="6252.48" x2="430.15" y2="6255.4" gradientTransform="translate(0 6508) scale(1 -1)" gradientUnits="userSpaceOnUse">
      <stop offset="0" stop-color="#7d4d1f"/>
      <stop offset="1" stop-color="#e0b745"/>
    </linearGradient>
    <linearGradient id="linear-gradient-25" x1="423.43" y1="6256.11" x2="434.65" y2="6281.32" gradientTransform="translate(0 6508) scale(1 -1)" gradientUnits="userSpaceOnUse">
      <stop offset="0" stop-color="#8a6026"/>
      <stop offset="1" stop-color="#fff1ab"/>
    </linearGradient>
    <linearGradient id="linear-gradient-26" x1="443.43" y1="6239.55" x2="431.69" y2="6265.93" gradientTransform="translate(0 6508) scale(1 -1)" gradientUnits="userSpaceOnUse">
      <stop offset="0" stop-color="#7d4d1f"/>
      <stop offset="1" stop-color="#fff1ab"/>
    </linearGradient>
    <linearGradient id="linear-gradient-27" x1="451.67" y1="6251.92" x2="408.99" y2="6241.28" gradientTransform="translate(0 6508) scale(1 -1)" gradientUnits="userSpaceOnUse">
      <stop offset="0" stop-color="#482a0f"/>
      <stop offset=".1" stop-color="#a77129"/>
      <stop offset=".15" stop-color="#fff"/>
      <stop offset=".4" stop-color="#8e5923"/>
      <stop offset=".5" stop-color="#d8a64d"/>
      <stop offset=".59" stop-color="#f5e380"/>
      <stop offset=".77" stop-color="#fff"/>
      <stop offset=".88" stop-color="#a0752b"/>
      <stop offset="1" stop-color="#664219"/>
    </linearGradient>
  </defs>
  <path class="cls-25" d="M262.24,23.04c4.96,0,9.38,13.17,14.33,13.48,4.95.31,10.44-12.22,15.35-11.61,4.92.63,7.66,14.24,12.53,15.17,4.87.93,11.89-10.82,16.69-9.59,4.8,1.24,5.81,15.09,10.53,16.62,4.71,1.53,13.15-9.24,17.76-7.43,4.61,1.83,3.88,15.7,8.36,17.81,4.48,2.11,14.2-7.52,18.55-5.14,4.34,2.4,1.88,16.06,6.06,18.71,4.19,2.66,15.03-5.68,19.05-2.78,4.01,2.92-.15,16.17,3.67,19.33,3.82,3.16,15.63-3.76,19.25-.37,3.61,3.4-2.17,16.02,1.22,19.63,3.39,3.61,15.97-1.77,19.14,2.05,3.15,3.83-4.16,15.62-1.25,19.63,2.91,4.01,16.07.25,18.73,4.43,2.65,4.19-6.09,14.98-3.7,19.32,2.39,4.34,15.91,2.26,18.03,6.74,2.1,4.49-7.92,14.1-6.09,18.7,1.82,4.61,15.5,4.24,17.04,8.95,1.52,4.72-9.62,12.99-8.39,17.79,1.23,4.8,14.85,6.15,15.79,11.02.92,4.87-11.18,11.68-10.55,16.6.62,4.92,13.96,7.96,14.28,12.91.3,4.95-12.55,10.19-12.55,15.15s12.85,9.65,12.55,14.6c-.32,4.95-13.73,8.54-14.35,13.46-.62,4.92,11.54,11.18,10.62,16.05-.94,4.87-14.69,6.75-15.92,11.55-1.23,4.8,10.05,12.54,8.53,17.26-1.54,4.71-15.42,4.85-17.25,9.46-1.82,4.61,8.4,13.7,6.3,18.19-2.12,4.48-15.91,2.88-18.3,7.23-2.39,4.34,6.62,14.65,3.97,18.84-2.67,4.18-16.14.87-19.06,4.88-2.91,4.01,4.73,15.36,1.57,19.18-3.17,3.82-16.12-1.16-19.52,2.45-3.39,3.61,2.77,15.83-.84,19.23-3.62,3.39-15.85-3.17-19.67-.02-3.82,3.16.76,16.05-3.24,18.97-4.02,2.91-15.33-5.14-19.51-2.48-4.19,2.66-1.26,16.02-5.6,18.42-4.35,2.38-14.56-7.02-19.05-4.91-4.48,2.11-3.26,15.74-7.86,17.57-4.61,1.82-13.57-8.79-18.29-7.26-4.71,1.53-5.2,15.21-10,16.45-4.81,1.22-12.36-10.42-17.23-9.49-4.87.93-7.07,14.43-11.98,15.06-4.92.61-10.96-11.89-15.91-11.58-4.95.31-8.82,13.43-13.78,13.44-4.96,0-9.38-13.17-14.33-13.48-4.95-.31-10.44,12.22-15.35,11.61-4.92-.63-7.66-14.24-12.53-15.17-4.87-.93-11.89,10.82-16.69,9.59-4.8-1.24-5.81-15.09-10.53-16.62-4.71-1.53-13.15,9.24-17.76,7.43-4.61-1.83-3.88-15.7-8.36-17.81-4.48-2.11-14.2,7.52-18.55,5.14-4.34-2.4-1.88-16.06-6.06-18.71-4.19-2.66-15.03,5.68-19.05,2.78-4.01-2.92.15-16.17-3.67-19.33-3.82-3.16-15.63,3.75-19.25.37-3.61-3.4,2.17-16.02-1.22-19.63-3.39-3.61-15.97,1.77-19.14-2.05-3.15-3.83,4.16-15.62,1.25-19.63-2.91-4.01-16.07-.25-18.73-4.43-2.65-4.19,6.09-14.98,3.7-19.32-2.39-4.34-15.91-2.26-18.03-6.74-2.1-4.49,7.92-14.09,6.09-18.7-1.82-4.61-15.5-4.24-17.04-8.95-1.52-4.72,9.62-12.99,8.39-17.79-1.23-4.8-14.85-6.15-15.79-11.02-.92-4.87,11.18-11.68,10.55-16.6-.62-4.92-13.96-7.96-14.28-12.91-.3-4.95,12.55-10.19,12.55-15.15s-12.85-9.65-12.55-14.6c.32-4.95,13.73-8.54,14.35-13.45.62-4.92-11.54-11.18-10.62-16.05.94-4.87,14.69-6.75,15.92-11.55,1.23-4.8-10.05-12.54-8.53-17.26,1.54-4.71,15.42-4.85,17.25-9.46,1.82-4.61-8.4-13.7-6.3-18.19,2.12-4.48,15.91-2.88,18.3-7.23,2.39-4.34-6.62-14.65-3.97-18.84,2.67-4.18,16.14-.87,19.06-4.88,2.91-4.01-4.73-15.36-1.57-19.18,3.17-3.82,16.12,1.16,19.52-2.45,3.39-3.61-2.77-15.83.84-19.23,3.62-3.39,15.85,3.18,19.67.02,3.82-3.16-.76-16.05,3.24-18.97,4.02-2.91,15.33,5.14,19.51,2.48,4.19-2.66,1.26-16.02,5.6-18.42,4.35-2.38,14.56,7.02,19.05,4.91s3.26-15.74,7.86-17.57c4.61-1.82,13.57,8.79,18.28,7.26,4.71-1.53,5.2-15.21,10-16.45,4.81-1.23,12.36,10.42,17.23,9.49,4.87-.93,7.07-14.43,11.98-15.06,4.92-.61,10.96,11.89,15.91,11.57,4.95-.31,8.83-13.43,13.78-13.44Z"/>
  <circle class="cls-26" cx="262.24" cy="257.15" r="202.24"/>
  <circle class="cls-27" cx="262.24" cy="259.97" r="135.05"/>
  <path class="cls-28" d="M262.24,456.6c108.3,0,196.63-88.33,196.63-196.63S370.54,63.34,262.24,63.34s-196.63,88.33-196.63,196.63,88.33,196.63,196.63,196.63"/>
  <path class="cls-28" d="M262.24,400.84c77.59,0,140.86-63.28,140.86-140.86s-63.28-140.86-140.86-140.86-140.86,63.28-140.86,140.86c0,77.59,63.28,140.86,140.86,140.86"/>
  <g>
    <g>
      <path class="cls-17" d="M101.16,253.8l13.58.91,2.77-1.04h0s-2.76,1.04-2.76,1.04h0l-9.69,9.7-.49.49,1.35.36h0s-1.35-.36-1.35-.36h0s.17.67.17.67l3.36,13.29h0s-5.95-3.03-5.95-3.03l-1-22.03h0ZM101.11,252.67h0s.06-.1.06-.1h0l-.07.1h0ZM93.72,237.98h0l.13,2.95-5.09,12.71-.26.64h0s0,.01,0,.01l-.69.11-13.53,2.15h0s10.53,8.78,10.53,8.78l.53.44h0s-.2.08-.2.08l.2-.08-.11.68-2.14,13.54h0s11.6-7.3,11.6-7.3l.58-.37h0l.62.31,6.27,3.19-1-22.03h-.07s-.69-.05-.69-.05v-.02s-.32-.6-.32-.6l-6.22-12.18-.14-2.95v-.02h0ZM101.11,252.67h0l-.06.1.06-.1h0Z"/>
      <polygon class="cls-8" points="79.9 284.88 79.85 284.91 80.27 282.26 82.72 266.75 82.71 266.75 85.33 265.77 85.23 266.45 83.09 279.99 83.14 279.96 79.9 284.88"/>
      <polygon class="cls-16" points="95.41 275.12 82.12 283.48 79.85 284.91 79.85 284.91 83.09 279.99 83.09 279.99 94.69 272.69 95.28 272.33 95.41 275.12"/>
      <polygon class="cls-19" points="111.78 283.45 109.4 282.24 95.41 275.12 95.41 275.12 95.28 272.33 95.28 272.33 95.9 272.64 108.11 278.85 108.11 278.85 111.78 283.45"/>
      <polygon class="cls-20" points="107.29 265.63 107.29 265.64 111.13 280.86 111.79 283.45 111.79 283.45 108.11 278.85 108.11 278.85 104.76 265.56 104.59 264.9 104.59 264.89 107.29 265.63"/>
      <polygon class="cls-14" points="120.25 252.65 118.38 254.53 107.3 265.62 104.59 264.89 105.08 264.41 114.76 254.71 114.75 254.71 120.25 252.65"/>
      <polygon class="cls-5" points="101.97 251.41 117.59 252.45 120.27 252.63 120.26 252.65 114.74 254.71 101.09 253.79 100.39 253.75 100.38 253.73 101.97 251.41"/>
      <polygon class="cls-24" points="82.71 266.75 70.66 256.7 68.61 255 74.29 256.55 74.28 256.55 84.8 265.33 85.34 265.77 85.33 265.77 82.71 266.75"/>
      <polygon class="cls-15" points="68.62 255.01 68.6 254.98 71.25 254.56 86.74 252.1 88.5 254.28 88.5 254.29 87.81 254.4 74.29 256.55 68.62 255.01"/>
      <polygon class="cls-2" points="86.74 252.1 86.75 252.1 92.58 237.53 93.58 235.04 93.58 235.04 93.85 240.93 88.76 253.64 88.5 254.28 86.74 252.1"/>
      <polygon class="cls-23" points="94.8 237.43 101.97 251.41 100.39 253.75 100.39 253.75 100.08 253.13 93.86 240.94 93.59 235.05 94.8 237.43"/>
    </g>
    <path class="cls-3" d="M93.94,240.91l6.53,12.68,14.23,1,.23.02-.16.16-10.04,10.12,3.45,13.84.06.22-.2-.1-12.73-6.42-12.1,7.55-.19.12.04-.23,2.17-14.09-10.92-9.17-.18-.15.23-.04,14.08-2.29,5.34-13.22.09-.21.1.21h0ZM100.3,253.74h0l-6.45-12.53-5.28,13.06-.02.06h-.06s-13.91,2.27-13.91,2.27l10.79,9.06.05.04v.06s-2.16,13.93-2.16,13.93l11.95-7.46.05-.03.05.03,12.58,6.35-3.41-13.67v-.06s.03-.04.03-.04l9.92-10-14.06-.98h-.06s-.03-.06-.03-.06Z"/>
  </g>
  <g>
    <g>
      <path class="cls-13" d="M436.76,253.8l13.58.91,2.77-1.04h0s-2.76,1.04-2.76,1.04h0l-9.69,9.7-.49.49,1.35.36h0s-1.35-.36-1.35-.36h0s.17.67.17.67l3.36,13.29h0s-5.95-3.03-5.95-3.03l-1-22.03h0ZM436.71,252.67h0s.06-.1.06-.1h0l-.07.1h0ZM429.32,237.98h0l.13,2.95-5.09,12.71-.26.64h0s0,.01,0,.01l-.69.11-13.53,2.15h0s10.53,8.78,10.53,8.78l.53.44h0s-.2.08-.2.08l.2-.08-.11.68-2.14,13.54h0s11.6-7.3,11.6-7.3l.58-.37h0l.62.31,6.27,3.19-1-22.03h-.07s-.69-.05-.69-.05v-.02s-.32-.6-.32-.6l-6.22-12.18-.14-2.95v-.02h0ZM436.71,252.67h0l-.06.1.06-.1h0Z"/>
      <polygon class="cls-22" points="415.5 284.88 415.46 284.91 415.87 282.26 418.32 266.75 418.32 266.75 420.94 265.77 420.83 266.45 418.7 279.99 418.74 279.96 415.5 284.88"/>
      <polygon class="cls-9" points="431.01 275.12 417.72 283.48 415.46 284.91 415.46 284.91 418.7 279.99 418.7 279.99 430.3 272.69 430.88 272.33 431.01 275.12"/>
      <polygon class="cls-4" points="447.39 283.45 445 282.24 431.01 275.12 431.01 275.12 430.88 272.33 430.88 272.33 431.5 272.64 443.72 278.85 443.72 278.85 447.39 283.45"/>
      <polygon class="cls-11" points="442.9 265.63 442.89 265.64 446.73 280.86 447.39 283.45 447.39 283.45 443.71 278.85 443.72 278.85 440.36 265.56 440.19 264.9 440.19 264.89 442.9 265.63"/>
      <polygon class="cls-10" points="455.86 252.65 453.98 254.53 442.9 265.62 440.19 264.89 440.68 264.41 450.37 254.71 450.36 254.71 455.86 252.65"/>
      <polygon class="cls-21" points="437.57 251.41 453.2 252.45 455.87 252.63 455.86 252.65 450.35 254.71 436.69 253.79 436 253.75 435.99 253.73 437.57 251.41"/>
      <polygon class="cls-12" points="418.32 266.75 406.26 256.7 404.22 255 409.9 256.55 409.88 256.55 420.41 265.33 420.94 265.77 420.94 265.77 418.32 266.75"/>
      <polygon class="cls-1" points="404.23 255.01 404.2 254.98 406.85 254.56 422.34 252.1 424.11 254.28 424.1 254.29 423.42 254.4 409.89 256.55 404.23 255.01"/>
      <polygon class="cls-18" points="422.35 252.1 422.35 252.1 428.19 237.53 429.18 235.04 429.19 235.04 429.45 240.93 424.36 253.64 424.1 254.28 422.35 252.1"/>
      <polygon class="cls-6" points="430.41 237.43 437.57 251.41 436 253.75 436 253.75 435.68 253.13 429.46 240.94 429.19 235.05 430.41 237.43"/>
    </g>
    <path class="cls-7" d="M429.54,240.91l6.53,12.68,14.23,1,.23.02-.16.16-10.05,10.12,3.45,13.84.06.22-.2-.1-12.73-6.42-12.1,7.55-.19.12.04-.23,2.17-14.09-10.92-9.17-.18-.15.23-.04,14.08-2.29,5.34-13.22.09-.21.1.21h0ZM435.91,253.74h0l-6.45-12.53-5.28,13.06-.02.06h-.06s-13.91,2.27-13.91,2.27l10.79,9.06.05.04v.06s-2.16,13.93-2.16,13.93l11.95-7.46.05-.03.05.03,12.58,6.35-3.41-13.67v-.06s.03-.04.03-.04l9.92-10-14.06-.98h-.06s-.03-.06-.03-.06Z"/>
  </g>
</svg>