<?xml version="1.0" encoding="UTF-8"?>
<svg id="_Layer_1" data-name="#Layer 1" xmlns="http://www.w3.org/2000/svg" xmlns:xlink="http://www.w3.org/1999/xlink" viewBox="0 0 518 534">
  <defs>
    <style>
      .cls-1 {
        fill: url(#linear-gradient-13);
      }

      .cls-1, .cls-2, .cls-3, .cls-4, .cls-5, .cls-6, .cls-7, .cls-8, .cls-9, .cls-10, .cls-11, .cls-12, .cls-13, .cls-14, .cls-15, .cls-16, .cls-17, .cls-18 {
        fill-rule: evenodd;
      }

      .cls-2 {
        fill: url(#linear-gradient-15);
      }

      .cls-3 {
        fill: url(#linear-gradient-19);
      }

      .cls-4 {
        fill: url(#linear-gradient-10);
      }

      .cls-19 {
        fill: url(#linear-gradient-3);
      }

      .cls-5 {
        fill: url(#linear-gradient-5);
      }

      .cls-6 {
        fill: url(#linear-gradient-2);
      }

      .cls-7 {
        fill: url(#linear-gradient-18);
      }

      .cls-8 {
        fill: url(#linear-gradient-16);
      }

      .cls-9 {
        fill: url(#linear-gradient-9);
      }

      .cls-10 {
        fill: url(#linear-gradient-12);
      }

      .cls-20 {
        fill: #d0ae6d;
        stroke: #80694a;
        stroke-miterlimit: 2.61;
        stroke-width: .5px;
      }

      .cls-11 {
        fill: url(#linear-gradient-6);
      }

      .cls-12 {
        fill: url(#linear-gradient-4);
      }

      .cls-13 {
        fill: url(#linear-gradient-7);
      }

      .cls-14 {
        fill: url(#linear-gradient-8);
      }

      .cls-15 {
        fill: url(#linear-gradient-17);
      }

      .cls-16 {
        fill: url(#linear-gradient-14);
      }

      .cls-17 {
        fill: url(#radial-gradient);
      }

      .cls-18 {
        fill: url(#linear-gradient-11);
      }

      .cls-21 {
        fill: url(#linear-gradient);
      }
    </style>
    <linearGradient id="linear-gradient" x1="254.02" y1="4521.68" x2="254.02" y2="5191.88" gradientTransform="translate(0 5160) scale(1 -1)" gradientUnits="userSpaceOnUse">
      <stop offset="0" stop-color="#f4c761"/>
      <stop offset=".28" stop-color="#a97f2c"/>
      <stop offset=".36" stop-color="#230b0a"/>
      <stop offset=".46" stop-color="#6d4c1e"/>
      <stop offset=".51" stop-color="#1a0b05"/>
      <stop offset=".53" stop-color="#f8f1de"/>
      <stop offset=".86" stop-color="#f3e3c2"/>
      <stop offset="1" stop-color="#d0ab5b"/>
    </linearGradient>
    <linearGradient id="linear-gradient-2" x1="381.55" y1="4684.14" x2="125.97" y2="5109.5" gradientTransform="translate(0 5160) scale(1 -1)" gradientUnits="userSpaceOnUse">
      <stop offset="0" stop-color="#482a0f"/>
      <stop offset=".1" stop-color="#a77129"/>
      <stop offset=".15" stop-color="#fff"/>
      <stop offset=".22" stop-color="#da9e41"/>
      <stop offset=".34" stop-color="#8e5923"/>
      <stop offset=".5" stop-color="#d8a64d"/>
      <stop offset=".66" stop-color="#f5e380"/>
      <stop offset=".72" stop-color="#dac164"/>
      <stop offset=".77" stop-color="#fff"/>
      <stop offset=".83" stop-color="#a0752b"/>
      <stop offset="1" stop-color="#664219"/>
    </linearGradient>
    <linearGradient id="linear-gradient-3" x1="284.97" y1="4848.72" x2="125.81" y2="5093.81" gradientTransform="translate(0 5160) scale(1 -1)" gradientUnits="userSpaceOnUse">
      <stop offset="0" stop-color="#000002"/>
      <stop offset="1" stop-color="#5c5b5c"/>
    </linearGradient>
    <linearGradient id="linear-gradient-4" x1="97.62" y1="4896.39" x2="410.42" y2="4896.39" gradientTransform="translate(0 5160) scale(1 -1)" gradientUnits="userSpaceOnUse">
      <stop offset="0" stop-color="#dba73e"/>
      <stop offset=".25" stop-color="#f4f3b8"/>
      <stop offset=".5" stop-color="#d5b767"/>
      <stop offset=".8" stop-color="#f7ed9a"/>
      <stop offset=".94" stop-color="#d0ab5b"/>
      <stop offset="1" stop-color="#e0c77d"/>
    </linearGradient>
    <linearGradient id="linear-gradient-5" x1="415.19" y1="4740.75" x2="60.38" y2="5083.38" gradientTransform="translate(0 5160) scale(1 -1)" gradientUnits="userSpaceOnUse">
      <stop offset="0" stop-color="#f4c761"/>
      <stop offset=".28" stop-color="#a97f2c"/>
      <stop offset=".36" stop-color="#230b0a"/>
      <stop offset=".46" stop-color="#6d4c1e"/>
      <stop offset=".51" stop-color="#1a0b05"/>
      <stop offset=".53" stop-color="#f8f1de"/>
      <stop offset=".86" stop-color="#f3e3c2"/>
      <stop offset="1" stop-color="#d0ab5b"/>
    </linearGradient>
    <linearGradient id="linear-gradient-6" x1="117.48" y1="4896.39" x2="390.56" y2="4896.39" gradientTransform="translate(0 5160) scale(1 -1)" gradientUnits="userSpaceOnUse">
      <stop offset="0" stop-color="#dba73e"/>
      <stop offset=".25" stop-color="#f4f3b8"/>
      <stop offset=".5" stop-color="#d5b767"/>
      <stop offset=".8" stop-color="#f7ed9a"/>
      <stop offset=".94" stop-color="#d0ab5b"/>
      <stop offset="1" stop-color="#e0c77d"/>
    </linearGradient>
    <radialGradient id="radial-gradient" cx="252.41" cy="4993.54" fx="252.41" fy="4993.54" r="25.6" gradientTransform="translate(0 5160) scale(1 -1)" gradientUnits="userSpaceOnUse">
      <stop offset="0" stop-color="#ea1d25"/>
      <stop offset="1" stop-color="#401110"/>
    </radialGradient>
    <linearGradient id="linear-gradient-7" x1="242.44" y1="5001.45" x2="234.11" y2="4968.05" gradientTransform="translate(0 5160) scale(1 -1)" gradientUnits="userSpaceOnUse">
      <stop offset="0" stop-color="#8a6026"/>
      <stop offset="1" stop-color="#fff1ab"/>
    </linearGradient>
    <linearGradient id="linear-gradient-8" x1="234.24" y1="4965.39" x2="253.1" y2="4981.79" gradientTransform="translate(0 5160) scale(1 -1)" gradientUnits="userSpaceOnUse">
      <stop offset="0" stop-color="#7d4d1f"/>
      <stop offset="1" stop-color="#e0b745"/>
    </linearGradient>
    <linearGradient id="linear-gradient-9" x1="262.29" y1="4970.07" x2="266.64" y2="4977.02" gradientTransform="translate(0 5160) scale(1 -1)" gradientUnits="userSpaceOnUse">
      <stop offset="0" stop-color="#7d4d1f"/>
      <stop offset="1" stop-color="#e0b745"/>
    </linearGradient>
    <linearGradient id="linear-gradient-10" x1="266.69" y1="4999.98" x2="273.16" y2="4969.51" gradientTransform="translate(0 5160) scale(1 -1)" gradientUnits="userSpaceOnUse">
      <stop offset="0" stop-color="#8a6026"/>
      <stop offset="1" stop-color="#fff1ab"/>
    </linearGradient>
    <linearGradient id="linear-gradient-11" x1="270.13" y1="4991.36" x2="303.22" y2="5024.45" gradientTransform="translate(0 5160) scale(1 -1)" gradientUnits="userSpaceOnUse">
      <stop offset="0" stop-color="#5a3511"/>
      <stop offset="1" stop-color="#e0b745"/>
    </linearGradient>
    <linearGradient id="linear-gradient-12" x1="262.07" y1="5008.74" x2="284.87" y2="5005.13" gradientTransform="translate(0 5160) scale(1 -1)" gradientUnits="userSpaceOnUse">
      <stop offset="0" stop-color="#f8d367"/>
      <stop offset="1" stop-color="#fff1ab"/>
    </linearGradient>
    <linearGradient id="linear-gradient-13" x1="240.07" y1="4990.17" x2="217.29" y2="5010.68" gradientTransform="translate(0 5160) scale(1 -1)" gradientUnits="userSpaceOnUse">
      <stop offset="0" stop-color="#5a3511"/>
      <stop offset="1" stop-color="#e0b745"/>
    </linearGradient>
    <linearGradient id="linear-gradient-14" x1="223.86" y1="5005.93" x2="247.75" y2="5008.02" gradientTransform="translate(0 5160) scale(1 -1)" gradientUnits="userSpaceOnUse">
      <stop offset="0" stop-color="#583512"/>
      <stop offset="1" stop-color="#e0b745"/>
    </linearGradient>
    <linearGradient id="linear-gradient-15" x1="245.36" y1="5009.67" x2="261.59" y2="5042.94" gradientTransform="translate(0 5160) scale(1 -1)" gradientUnits="userSpaceOnUse">
      <stop offset="0" stop-color="#8a6026"/>
      <stop offset="1" stop-color="#fff1ab"/>
    </linearGradient>
    <linearGradient id="linear-gradient-16" x1="272.6" y1="4985.08" x2="256.11" y2="5023.93" gradientTransform="translate(0 5160) scale(1 -1)" gradientUnits="userSpaceOnUse">
      <stop offset="0" stop-color="#7d4d1f"/>
      <stop offset="1" stop-color="#fff1ab"/>
    </linearGradient>
    <linearGradient id="linear-gradient-17" x1="-33.3" y1="4804.53" x2="546.37" y2="4804.53" gradientTransform="translate(0 5160) scale(1 -1)" gradientUnits="userSpaceOnUse">
      <stop offset="0" stop-color="#dba73e"/>
      <stop offset=".25" stop-color="#f4f3b8"/>
      <stop offset=".5" stop-color="#d5b767"/>
      <stop offset=".8" stop-color="#f7ed9a"/>
      <stop offset=".94" stop-color="#d0ab5b"/>
      <stop offset="1" stop-color="#e0c77d"/>
    </linearGradient>
    <linearGradient id="linear-gradient-18" x1="461.31" y1="4951.93" x2="9.72" y2="4830.93" gradientTransform="translate(0 5160) scale(1 -1)" gradientUnits="userSpaceOnUse">
      <stop offset="0" stop-color="#482a0f"/>
      <stop offset=".1" stop-color="#a77129"/>
      <stop offset=".15" stop-color="#fff"/>
      <stop offset=".22" stop-color="#da9e41"/>
      <stop offset=".34" stop-color="#8e5923"/>
      <stop offset=".5" stop-color="#d8a64d"/>
      <stop offset=".66" stop-color="#f5e380"/>
      <stop offset=".72" stop-color="#dac164"/>
      <stop offset=".77" stop-color="#fff"/>
      <stop offset=".83" stop-color="#a0752b"/>
      <stop offset="1" stop-color="#664219"/>
    </linearGradient>
    <linearGradient id="linear-gradient-19" x1="56.78" y1="4896.39" x2="451.26" y2="4896.39" gradientTransform="translate(0 5160) scale(1 -1)" gradientUnits="userSpaceOnUse">
      <stop offset="0" stop-color="#dba73e"/>
      <stop offset=".25" stop-color="#f4f3b8"/>
      <stop offset=".5" stop-color="#d5b767"/>
      <stop offset=".8" stop-color="#f7ed9a"/>
      <stop offset=".94" stop-color="#d0ab5b"/>
      <stop offset="1" stop-color="#e0c77d"/>
    </linearGradient>
  </defs>
  <circle class="cls-20" cx="253.99" cy="263.62" r="236.37" transform="translate(-112.01 256.81) rotate(-45)"/>
  <circle class="cls-21" cx="254.02" cy="263.61" r="234.48"/>
  <path class="cls-6" d="M460.65,352.3c-48.98,114.12-181.2,166.93-295.31,117.95C51.22,421.27-1.59,289.05,47.39,174.93,96.36,60.81,228.58,8,342.7,56.98c114.12,48.98,166.93,181.2,117.95,295.32Z"/>
  <circle cx="253.99" cy="263.62" r="221.02"/>
  <circle class="cls-19" cx="254.02" cy="263.61" r="146.1"/>
  <path class="cls-12" d="M254.02,98.88c45.49,0,86.67,18.44,116.48,48.25,17.94,17.94,31.76,40,39.92,64.64h-6.21c-7.94-23.01-21.02-43.63-37.87-60.48-28.75-28.75-68.46-46.53-112.32-46.53s-83.58,17.78-112.32,46.53c-16.85,16.85-29.93,37.47-37.87,60.48h-6.21c8.16-24.64,21.98-46.7,39.92-64.64,29.81-29.81,70.99-48.25,116.48-48.25h0ZM410.35,315.68h0c-8.17,24.55-21.96,46.53-39.84,64.41-29.81,29.81-70.99,48.25-116.48,48.25s-86.67-18.44-116.48-48.25c-17.89-17.89-31.67-39.86-39.85-64.41h6.21c7.95,22.92,21,43.46,37.79,60.25,28.75,28.75,68.46,46.53,112.32,46.53s83.58-17.78,112.32-46.53c16.79-16.79,29.84-37.33,37.79-60.25h6.21Z"/>
  <path class="cls-5" d="M254.02,108.26c42.9,0,81.74,17.39,109.85,45.5,16.2,16.2,28.84,35.96,36.64,58.01h-2.78c-7.69-21.33-20-40.45-35.71-56.16-27.64-27.64-65.83-44.74-108-44.74s-80.36,17.1-108.01,44.74c-15.71,15.71-28.02,34.84-35.71,56.16h-2.78c7.8-22.05,20.44-41.81,36.64-58.01,28.12-28.11,66.95-45.5,109.85-45.5h0ZM400.43,315.68h0c-7.81,21.96-20.41,41.64-36.56,57.78-28.11,28.11-66.95,45.5-109.85,45.5s-81.74-17.39-109.85-45.5c-16.14-16.14-28.75-35.83-36.56-57.78h2.78c7.7,21.23,19.97,40.28,35.63,55.93,27.64,27.64,65.83,44.74,108.01,44.74s80.36-17.1,108-44.74c15.66-15.66,27.93-34.7,35.63-55.93h2.78Z"/>
  <path class="cls-11" d="M254.02,112.27c41.79,0,79.63,16.94,107.01,44.33,15.45,15.45,27.58,34.23,35.21,55.17h-.7c-7.61-20.76-19.65-39.38-34.98-54.71-27.27-27.27-64.94-44.14-106.55-44.14s-79.28,16.87-106.55,44.14c-15.33,15.33-27.37,33.95-34.98,54.71h-.7c7.64-20.94,19.76-39.72,35.21-55.17,27.39-27.39,65.22-44.33,107.01-44.33h0ZM396.16,315.68h0c-7.64,20.85-19.73,39.55-35.13,54.94-27.39,27.39-65.22,44.33-107.01,44.33s-79.63-16.94-107.01-44.33c-15.4-15.4-27.49-34.09-35.13-54.94h.7c7.61,20.67,19.62,39.21,34.9,54.48,27.27,27.27,64.94,44.14,106.55,44.14s79.28-16.87,106.55-44.14c15.27-15.28,27.28-33.81,34.9-54.48h.7Z"/>
  <g>
    <path class="cls-17" d="M263.02,153.62l18.14,2.04,3.77-1.22h0s-3.76,1.22-3.76,1.22h.01s-13.56,12.4-13.56,12.4l-.68.62,1.79.57h0s-1.79-.57-1.79-.57h0s.19.91.19.91l3.69,18h0s-7.78-4.42-7.78-4.42v-29.56h0ZM263.02,152.11h0s.09-.12.09-.12h0s-.09.12-.09.12h0ZM254.02,131.98h0v3.96s-7.6,16.72-7.6,16.72l-.38.84h0s0,.01,0,.01l-.93.1-18.25,2.06h-.01s13.56,12.4,13.56,12.4l.68.63h0l-.27.09.27-.09-.18.9-3.69,18h0s15.98-9.07,15.98-9.07l.81-.46.81.46,8.2,4.65v-29.56h-.1s-.93-.11-.93-.11v-.02s-.39-.83-.39-.83l-7.58-16.7v-3.96s-.01-.02-.01-.02h0ZM263.02,152.1h0l-.09.13.09-.12h0Z"/>
    <polygon class="cls-13" points="232.65 193.95 232.59 193.98 233.31 190.46 237.53 169.84 237.53 169.84 241.1 168.69 240.92 169.59 237.23 187.6 237.29 187.56 232.65 193.95"/>
    <polygon class="cls-14" points="254.02 181.83 235.72 192.21 232.59 193.98 232.59 193.98 237.23 187.6 237.23 187.6 253.21 178.53 254.02 178.07 254.02 181.83"/>
    <polygon class="cls-9" points="275.44 193.98 272.32 192.21 254.02 181.83 254.02 178.07 254.82 178.53 270.81 187.6 270.81 187.6 275.44 193.98"/>
    <polygon class="cls-4" points="270.52 169.83 270.51 169.84 274.73 190.46 275.45 193.98 275.44 193.98 270.8 187.59 270.81 187.6 267.12 169.59 266.94 168.69 266.94 168.69 270.52 169.83"/>
    <polygon class="cls-18" points="288.66 153.24 286.04 155.65 270.52 169.83 266.94 168.69 267.62 168.06 281.19 155.67 281.17 155.66 288.66 153.24"/>
    <polygon class="cls-10" points="264.25 150.46 285.12 152.82 288.69 153.22 288.67 153.24 281.16 155.66 262.93 153.61 262 153.5 261.99 153.48 264.25 150.46"/>
    <polygon class="cls-1" points="237.53 169.84 222 155.65 219.36 153.24 226.88 155.66 226.85 155.67 240.42 168.06 241.1 168.69 241.1 168.69 237.53 169.84"/>
    <polygon class="cls-16" points="219.38 153.25 219.35 153.22 222.92 152.82 243.82 150.46 246.04 153.49 246.04 153.5 245.11 153.61 226.86 155.66 219.38 153.25"/>
    <polygon class="cls-2" points="243.82 150.46 243.83 150.46 252.53 131.31 254.02 128.03 254.02 128.03 254.02 135.94 246.42 152.65 246.04 153.49 243.82 150.46"/>
    <polygon class="cls-8" points="255.51 131.31 264.25 150.46 262 153.5 261.62 152.65 254.03 135.96 254.02 128.04 255.51 131.31"/>
  </g>
  <path class="cls-15" d="M61.19,260.55c1.11,5.19,4.18,7.78,4.76,8.94l.92,2.94.66-.43c-1.69-5.92,6-6.66,3.42-14.87-.89-2.84-2.29-6.54-3.2-9.35-1.35-4.21.5-5.68,1.05-8.6-2.13,1.34-8.89,17.23-7.62,21.37h0ZM447.13,260.55h0c-1.11,5.19-4.18,7.78-4.76,8.94l-.92,2.94-.66-.43c1.69-5.92-6-6.66-3.42-14.87.9-2.84,2.29-6.54,3.2-9.35,1.35-4.21-.5-5.68-1.05-8.6,2.14,1.34,8.9,17.23,7.62,21.37h0ZM282.83,455.79h0c-1.54.61-2.98.93-4.26,1.08,1.28-.15,2.75-.16,4.4.09,4.33.28,16.78,12.25,17.27,14.72-2.53-1.56-3.25-3.81-7.67-4.04-2.95-.16-6.91-.17-9.88-.34-8.59-.51-6.55-7.95-12.69-8.48l-.17-.77,3.08.19c.89-.09,2.83-1.04,5.66-1.36-2.83.33-4.93-.16-5.82-.05l-2.96.88v-.79c5.85-1.91,2.17-8.7,10.42-11.13,2.85-.84,6.71-1.74,9.55-2.57,4.25-1.23,4.44-3.58,6.55-5.68.08,2.52-9.34,17-13.49,18.25h0ZM254.1,463.85h0c2.62,0,4.75-2.14,4.75-4.76s-2.14-4.76-4.75-4.76-4.76,2.14-4.76,4.76,2.14,4.76,4.76,4.76h0ZM202.26,452.12h0c1.63-.05,3.06.15,4.31.44-1.24-.31-2.6-.8-4.03-1.59-3.96-1.76-11.5-17.3-11.11-19.79,1.84,2.33,1.73,4.69,5.79,6.45,2.72,1.17,6.43,2.55,9.15,3.74,7.89,3.44,3.39,9.72,8.97,12.34l-.11.78-2.82-1.24c-.86-.22-2.98,0-5.72-.66,2.73.68,4.51,1.84,5.38,2.05l3.08.19-.26.74c-6.16-.24-5.05,7.4-13.64,6.83-2.97-.2-6.9-.68-9.85-.9-4.41-.31-5.4,1.83-8.11,3.06.8-2.39,14.64-12.71,18.97-12.45h0ZM180.08,444.19h0c1.65.16,3.07.55,4.28,1.01,2.66,1.02,4.81,1.07,5.65,1.4l2.64,1.59.21-.76c-5.2-3.3.05-8.96-7.34-13.38-2.56-1.53-6.07-3.36-8.61-4.86-3.81-2.25-3.41-4.57-4.94-7.12-.7,2.42,4.82,18.78,8.53,21.03,1.34.98,2.65,1.64,3.86,2.11,2.66,1.01,4.3,2.41,5.14,2.72l3.03.58-.35.7c-6.08-1.01-5.94,6.71-14.39,5.06-2.92-.57-6.76-1.55-9.66-2.12-4.34-.86-5.59,1.14-8.43,2.01,1.09-2.27,16.13-10.78,20.39-9.97h0ZM159.08,433.54h0c1.62.37,2.98.93,4.12,1.54-1.14-.61-2.36-1.43-3.56-2.57-3.4-2.69-6.83-19.62-5.82-21.93,1.2,2.72.51,4.98,4,7.69,2.34,1.81,5.59,4.07,7.93,5.91,6.78,5.31.86,10.26,5.6,14.19l-.3.73-2.42-1.91c-.79-.43-2.92-.75-5.43-2.1,2.51,1.34,3.96,2.94,4.75,3.35l2.93.96-.44.66c-5.9-1.77-6.74,5.91-14.92,3.22-2.83-.93-6.51-2.39-9.31-3.32-4.19-1.4-5.69.42-8.61.94,1.37-2.12,17.35-8.66,21.48-7.33h0ZM139.59,420.33h0c-3.92-1.84-20.6,2.64-22.23,4.57,2.97-.14,4.68-1.77,8.67.16,2.66,1.28,6.13,3.19,8.82,4.47,7.77,3.7,9.57-3.81,15.2-1.32l.52-.59-2.79-1.32c-.74-.51-1.98-2.28-4.3-3.92,2.32,1.65,4.4,2.24,5.12,2.76l2.17,2.2.39-.68c-4.21-4.49,2.28-8.67-3.78-14.79-2.09-2.11-5.04-4.76-7.13-6.85-3.13-3.13-2.16-5.28-3-8.13-1.28,2.17-.01,19.39,3.02,22.49,1.05,1.28,2.16,2.25,3.21,3-1.06-.75-2.34-1.47-3.89-2.04h0ZM121.9,404.78h0c1.47.76,2.65,1.64,3.61,2.51-.95-.88-1.93-1.98-2.81-3.38-2.62-3.45-1.72-20.7-.17-22.69.48,2.93-.75,4.95,1.96,8.44,1.81,2.33,4.4,5.33,6.21,7.69,5.24,6.83-1.73,10.15,1.89,15.14l-.47.63-1.87-2.45c-.65-.61-2.64-1.46-4.73-3.39,2.09,1.93,3.1,3.83,3.77,4.43l2.6,1.66-.59.52c-5.27-3.18-8,4.04-15.25-.61-2.5-1.61-5.71-3.93-8.19-5.54-3.71-2.4-5.61-1.01-8.58-1.24,1.85-1.71,18.96-4.06,22.62-1.74h0ZM106.32,387.12h0c1.37.94,2.42,1.96,3.26,2.95,1.83,2.18,3.7,3.26,4.27,3.95l1.55,2.67.55-.56c-2.96-5.4,4.37-7.83.03-15.26-1.5-2.57-3.69-5.87-5.19-8.42-2.25-3.81-.77-5.65-.88-8.62-1.78,1.78-4.85,18.78-2.68,22.53.7,1.5,1.53,2.72,2.36,3.71,1.84,2.17,2.6,4.19,3.18,4.87l2.37,1.97-.65.45c-4.83-3.82-8.45,3.01-15.05-2.52-2.28-1.91-5.17-4.62-7.43-6.53-3.38-2.85-5.44-1.71-8.35-2.31,2.06-1.46,19.32-1.65,22.67,1.12h0ZM93.08,367.65h0c-2.97-3.16-20.12-5.15-22.34-3.96,2.81.96,5,.09,7.99,3.34,2,2.18,4.53,5.22,6.55,7.41,5.86,6.31,10.3,0,14.61,4.39l.7-.36-2.1-2.26c-.49-.74-.99-2.83-2.53-5.2,1.54,2.37,3.24,3.67,3.72,4.43l1.2,2.84.61-.49c-2.26-5.73,5.32-7.21,1.95-15.13-1.17-2.74-2.92-6.29-4.09-9-1.75-4.06-.06-5.7.21-8.66-2,1.54-7.17,18.02-5.5,22.02.5,1.57,1.16,2.87,1.86,3.95-.7-1.08-1.62-2.21-2.85-3.31h0ZM82.38,346.67h0c1.09,1.25,1.86,2.5,2.42,3.67-.56-1.17-1.06-2.55-1.36-4.18-1.16-4.18,6.04-19.87,8.22-21.15-.64,2.9-2.52,4.32-1.3,8.57.82,2.84,2.12,6.58,2.93,9.44,2.35,8.28-5.35,8.8-3.83,14.77l-.67.41-.83-2.97c-.38-.81-1.91-2.33-3.15-4.89,1.24,2.56,1.47,4.71,1.87,5.51l1.8,2.5-.74.27c-3.73-4.9-8.93.8-13.95-6.19-1.74-2.42-3.85-5.76-5.57-8.17-2.56-3.6-4.84-3.01-7.51-4.32,2.36-.9,19.12,3.23,21.67,6.74h0ZM74.42,324.51h0c.92,1.38,1.53,2.71,1.94,3.94.9,2.7,2.23,4.4,2.51,5.25l.45,3.05.72-.32c-.76-6.11,6.95-5.66,5.66-14.17-.45-2.94-1.26-6.81-1.72-9.74-.68-4.37,1.37-5.54,2.36-8.34-2.32,1-11.44,15.66-10.81,19.95.09,1.66.42,3.09.83,4.32.91,2.7.87,4.85,1.16,5.7l1.48,2.71-.77.18c-3.08-5.33-8.96-.32-13.06-7.9-1.42-2.62-3.1-6.2-4.5-8.81-2.09-3.9-4.43-3.59-6.91-5.23,2.45-.6,18.56,5.61,20.65,9.41h0ZM69.3,301.53h0c.74,1.48,1.18,2.89,1.43,4.16-.25-1.27-.39-2.73-.28-4.39-.08-4.33,10.81-17.73,13.23-18.43-1.34,2.66-3.52,3.56-3.39,7.98.08,2.95.41,6.9.48,9.88.21,8.61-7.38,7.19-7.4,13.34l-.75.23-.07-3.08c-.17-.88-1.27-2.73-1.83-5.52.56,2.79.25,4.92.44,5.8l1.12,2.88-.78.08c-2.39-5.68-8.85-1.45-11.96-9.48-1.08-2.77-2.3-6.54-3.35-9.3-1.58-4.13-3.94-4.12-6.2-6.06,2.51-.29,17.72,7.89,19.31,11.93h0ZM67.11,278.08h0c-1.07-4.2-15.13-14.23-17.65-14.26,2,2.2,4.34,2.49,5.39,6.79.7,2.87,1.44,6.76,2.16,9.65,2.08,8.35,9.02,4.97,10.68,10.9l.79.02-.75-2.99c-.07-.89.5-2.97.3-5.81-.09-1.29-.04-2.76.28-4.39.46-4.31,12.95-16.24,15.45-16.62-1.66,2.46-3.94,3.08-4.37,7.49-.29,2.94-.46,6.9-.76,9.86-.87,8.56-8.22,6.2-9.02,12.31l-.78.13.32-3.07c-.05-.89-.92-2.87-1.12-5.71-.09-1.29-.35-2.74-.9-4.3h0ZM225.08,457.05h0c-4.33.28-16.78,12.25-17.27,14.72,2.53-1.55,3.25-3.8,7.66-4.04,2.95-.16,6.91-.17,9.88-.34,8.59-.51,6.55-7.95,12.69-8.48l.17-.77-3.08.19c-.89-.09-2.83-1.04-5.66-1.36-1.28-.15-2.72-.46-4.26-1.08-4.15-1.25-13.57-15.73-13.49-18.24,2.11,2.09,2.3,4.44,6.55,5.67,2.84.82,6.69,1.73,9.55,2.57,8.26,2.44,4.58,9.22,10.44,11.13v.79s-2.97-.88-2.97-.88c-.89-.11-2.99.38-5.82.05-1.29-.15-2.76-.16-4.4.09h0ZM305.78,452.04h0c-1.66-.05-3.11.16-4.37.46,1.26-.31,2.64-.8,4.09-1.6,3.96-1.76,11.5-17.29,11.11-19.79-1.84,2.34-1.73,4.7-5.79,6.45-2.72,1.17-6.43,2.55-9.16,3.74-7.89,3.45-3.39,9.72-8.97,12.35l.11.78,2.82-1.24c.87-.22,3.01,0,5.78-.68-2.76.67-4.57,1.85-5.44,2.06l-3.08.19.26.74c6.16-.24,5.05,7.4,13.65,6.83,2.97-.2,6.9-.68,9.84-.89,4.41-.31,5.4,1.83,8.11,3.05-.8-2.39-14.65-12.72-18.97-12.45h0ZM327.95,444.11h0c4.26-.81,19.29,7.69,20.39,9.97-2.84-.88-4.09-2.88-8.43-2.01-2.9.58-6.74,1.55-9.66,2.12-8.45,1.65-8.32-6.07-14.39-5.06l-.35-.7,3.03-.58c.84-.31,2.48-1.71,5.14-2.73-2.66,1.02-4.81,1.07-5.65,1.4l-2.64,1.59-.21-.76c5.2-3.3-.05-8.97,7.34-13.38,2.56-1.53,6.07-3.36,8.61-4.86,3.81-2.25,3.41-4.57,4.94-7.12.7,2.42-4.82,18.78-8.53,21.03-1.34.98-2.65,1.64-3.86,2.1,1.21-.46,2.63-.84,4.28-1h0ZM348.96,433.46h0c-1.62.37-2.98.92-4.12,1.53,1.14-.61,2.36-1.43,3.56-2.57,3.4-2.69,6.83-19.62,5.82-21.93-1.2,2.72-.51,4.98-4,7.69-2.33,1.81-5.59,4.07-7.93,5.9-6.78,5.31-.86,10.27-5.6,14.19l.3.73,2.42-1.91c.78-.43,2.92-.75,5.43-2.1-2.51,1.34-3.96,2.94-4.76,3.35l-2.93.96.44.65c5.9-1.77,6.74,5.91,14.92,3.22,2.83-.93,6.51-2.38,9.31-3.32,4.19-1.4,5.69.42,8.61.94-1.37-2.12-17.35-8.66-21.48-7.33h0ZM368.45,420.25h0c3.92-1.84,20.6,2.64,22.23,4.57-2.97-.14-4.68-1.77-8.67.15-2.66,1.28-6.13,3.18-8.82,4.47-7.77,3.7-9.57-3.81-15.2-1.31l-.52-.59,2.79-1.32c.74-.51,1.97-2.28,4.3-3.92-2.32,1.65-4.39,2.23-5.12,2.76l-2.17,2.2-.39-.69c4.21-4.49-2.28-8.67,3.77-14.79,2.09-2.11,5.03-4.76,7.13-6.85,3.13-3.13,2.16-5.28,3-8.13,1.28,2.17.01,19.4-3.02,22.49-1.05,1.28-2.16,2.25-3.21,3,1.06-.75,2.34-1.47,3.89-2.04h0ZM386.13,404.69h0c-1.46.75-2.63,1.62-3.58,2.49.94-.87,1.91-1.96,2.78-3.35,2.62-3.45,1.72-20.7.17-22.69-.48,2.93.75,4.95-1.96,8.44-1.81,2.34-4.4,5.34-6.21,7.7-5.24,6.83,1.73,10.16-1.89,15.14l.47.63,1.87-2.45c.65-.61,2.61-1.45,4.7-3.35-2.07,1.92-3.07,3.8-3.74,4.4l-2.6,1.66.59.53c5.27-3.18,8,4.04,15.25-.61,2.5-1.61,5.71-3.93,8.19-5.54,3.71-2.4,5.61-1.01,8.58-1.24-1.85-1.71-18.96-4.06-22.62-1.74h0ZM401.72,387.04h0c-1.37.94-2.42,1.96-3.26,2.94.83-.99,1.66-2.2,2.36-3.71,2.17-3.75-.9-20.75-2.68-22.53-.11,2.97,1.37,4.81-.88,8.62-1.5,2.55-3.69,5.85-5.19,8.42-4.34,7.43,2.99,9.86.03,15.26l.55.57,1.55-2.67c.57-.69,2.43-1.78,4.27-3.95-1.84,2.17-2.6,4.19-3.18,4.87l-2.37,1.97.65.45c4.83-3.82,8.45,3,15.05-2.52,2.28-1.91,5.17-4.62,7.43-6.53,3.38-2.85,5.44-1.71,8.35-2.31-2.05-1.46-19.32-1.65-22.66,1.12h0ZM414.96,367.57h0c2.97-3.16,20.12-5.15,22.34-3.96-2.81.97-5,.09-7.99,3.34-2,2.18-4.53,5.22-6.55,7.41-5.86,6.31-10.3,0-14.61,4.39l-.7-.36,2.1-2.26c.5-.75,1-2.84,2.55-5.23-1.55,2.39-3.26,3.7-3.74,4.46l-1.2,2.84-.61-.49c2.26-5.73-5.32-7.21-1.95-15.13,1.17-2.74,2.92-6.29,4.09-9,1.75-4.06.06-5.7-.21-8.66,2,1.54,7.17,18.02,5.49,22.02-.5,1.58-1.17,2.89-1.88,3.97.71-1.08,1.63-2.23,2.87-3.33h0ZM425.65,346.59h0c-1.09,1.25-1.86,2.5-2.42,3.67-1.24,2.56-2.77,4.08-3.15,4.89l-.83,2.97-.67-.41c1.52-5.97-6.19-6.49-3.83-14.77.81-2.86,2.11-6.6,2.93-9.44,1.23-4.25-.66-5.66-1.3-8.57,2.18,1.28,9.38,16.97,8.22,21.15-.3,1.63-.8,3.01-1.36,4.18-1.24,2.56-1.47,4.7-1.87,5.51l-1.8,2.5.74.27c3.73-4.91,8.93.8,13.95-6.19,1.74-2.42,3.86-5.76,5.57-8.17,2.56-3.6,4.84-3.01,7.51-4.32-2.35-.9-19.12,3.23-21.67,6.74h0ZM433.62,324.43h0c2.08-3.8,18.2-10.01,20.65-9.41-2.48,1.64-4.82,1.33-6.91,5.23-1.4,2.61-3.08,6.19-4.5,8.81-4.1,7.57-9.98,2.56-13.06,7.9l-.77-.18,1.48-2.71c.29-.85.25-3,1.16-5.7-.9,2.7-2.23,4.4-2.51,5.25l-.45,3.05-.72-.32c.76-6.11-6.95-5.66-5.66-14.17.45-2.94,1.26-6.82,1.72-9.74.68-4.37-1.37-5.54-2.36-8.34,2.32,1,11.44,15.66,10.81,19.95-.09,1.65-.42,3.09-.83,4.32.42-1.23,1.02-2.57,1.95-3.94h0ZM438.74,301.44h0c-.74,1.48-1.18,2.89-1.43,4.16.25-1.27.39-2.73.28-4.39.08-4.33-10.81-17.73-13.24-18.43,1.34,2.65,3.52,3.56,3.39,7.97-.08,2.95-.41,6.9-.48,9.88-.21,8.6,7.38,7.19,7.4,13.35l.75.23.07-3.08c.17-.88,1.27-2.73,1.83-5.52-.56,2.79-.25,4.93-.44,5.8l-1.12,2.87.78.08c2.39-5.68,8.85-1.45,11.96-9.47,1.08-2.78,2.3-6.54,3.35-9.3,1.58-4.13,3.94-4.12,6.2-6.06-2.5-.29-17.71,7.89-19.3,11.93h0ZM440.93,277.99h0c-.55,1.56-.8,3.01-.9,4.31.09-1.29.04-2.76-.28-4.39-.46-4.31-12.95-16.23-15.45-16.62,1.66,2.46,3.94,3.08,4.37,7.48.29,2.94.46,6.9.76,9.86.87,8.56,8.22,6.2,9.02,12.31l.78.13-.32-3.07c.05-.9.92-2.87,1.12-5.71-.21,2.84.37,4.92.3,5.81l-.75,2.99.79-.02c1.65-5.94,8.59-2.55,10.67-10.91.72-2.89,1.46-6.78,2.16-9.65,1.05-4.29,3.39-4.58,5.39-6.79-2.52.03-16.58,10.06-17.65,14.26Z"/>
  <path class="cls-7" d="M67.37,210.12h373.3c4.99,0,9.53,2.04,12.82,5.33,3.29,3.29,5.33,7.82,5.33,12.82v70.7c0,4.99-2.04,9.53-5.33,12.82-3.29,3.29-7.82,5.33-12.82,5.33H67.37c-4.99,0-9.53-2.04-12.82-5.33-3.29-3.29-5.33-7.82-5.33-12.82v-70.7c0-4.99,2.04-9.53,5.33-12.82,3.29-3.29,7.82-5.33,12.82-5.33h0ZM440.67,217.18H67.37c-3.04,0-5.81,1.25-7.82,3.26-2.01,2.01-3.26,4.78-3.26,7.82v70.7c0,3.04,1.25,5.81,3.26,7.82,2.01,2.01,4.78,3.26,7.82,3.26h373.3c3.04,0,5.81-1.25,7.82-3.26s3.26-4.78,3.26-7.82v-70.7c0-3.04-1.25-5.81-3.26-7.82-2.01-2.01-4.78-3.26-7.82-3.26Z"/>
  <path class="cls-3" d="M67.37,213.65h373.3c8.04,0,14.61,6.57,14.61,14.61v70.7c0,8.04-6.57,14.61-14.61,14.61H67.37c-8.04,0-14.61-6.57-14.61-14.61v-70.7c0-8.04,6.58-14.61,14.61-14.61Z"/>
</svg>