<svg width="220" height="70" viewBox="0 0 220 70" xmlns="http://www.w3.org/2000/svg">
  <!-- Design 2: Friendly Assistant - Robot in circular badge with "Tamma" -->

  <!-- Circular badge background -->
  <circle cx="35" cy="35" r="32" fill="#f0f9ff" stroke="#2563eb" stroke-width="2"/>

  <!-- Robot Icon (scaled and centered in circle) -->
  <g transform="translate(10, 10) scale(0.025)">
    <!-- Main robot body -->
    <path d="m1287.5 1335.55h-527c-66.237 0-120.125-53.888-120.125-120.125v-527c0-66.237 53.888-120.125 120.125-120.125h527c66.237 0 120.125 53.888 120.125 120.125v526.999c0 66.238-53.888 120.126-120.125 120.126zm-527-720.75c-40.597 0-73.625 33.028-73.625 73.625v526.999c0 40.597 33.028 73.625 73.625 73.625h527c40.597 0 73.625-33.028 73.625-73.625v-526.999c0-40.597-33.028-73.625-73.625-73.625z" fill="#2563eb"/>

    <!-- Center panel -->
    <path d="m1120.1 1479.7h-192.2c-12.841 0-23.25-10.409-23.25-23.25v-144.15c0-12.841 10.409-23.25 23.25-23.25h192.2c12.841 0 23.25 10.409 23.25 23.25v144.151c0 12.84-10.409 23.249-23.25 23.249zm-168.95-46.5h145.7v-97.651h-145.7z" fill="#10b981"/>

    <!-- Left eye -->
    <circle cx="880" cy="856" r="72.85" fill="#10b981"/>

    <!-- Right eye -->
    <circle cx="1168" cy="856" r="72.85" fill="#10b981"/>

    <!-- Antennas -->
    <circle cx="447.4" cy="880" r="28" fill="#2563eb"/>
    <rect x="475" y="868" width="165" height="24" rx="12" fill="#2563eb"/>

    <circle cx="1600.6" cy="880" r="28" fill="#2563eb"/>
    <rect x="1408" y="868" width="165" height="24" rx="12" fill="#2563eb"/>

    <!-- Robot base -->
    <path d="m1552.55 1768h-1057.1c-12.841 0-23.25-10.409-23.25-23.25v-142.987c0-92.946 75.617-168.562 168.562-168.562h766.475c92.946 0 168.562 75.616 168.562 168.562v142.987c.001 12.841-10.409 23.25-23.249 23.25zm-1033.85-46.5h1010.6v-119.737c0-67.306-54.757-122.062-122.062-122.062h-766.476c-67.305 0-122.062 54.757-122.062 122.062z" fill="#2563eb"/>
  </g>

  <!-- Tamma Text -->
  <text x="78" y="45" font-family="Inter, Rounded, system-ui, -apple-system, sans-serif" font-size="34" font-weight="700" fill="#1f2937" letter-spacing="-0.5">
    Tamma
  </text>

  <!-- Tagline -->
  <text x="78" y="58" font-family="Inter, system-ui, -apple-system, sans-serif" font-size="10" font-weight="500" fill="#6b7280" letter-spacing="0.5">
    AUTONOMOUS PLATFORM
  </text>
</svg>
