<svg id="Layer_1" enable-background="new 0 0 512 512" height="512" viewBox="0 0 512 512" width="512" xmlns="http://www.w3.org/2000/svg"><g><path d="m486.4 256.006c0 13.088-19.772 24.295-21.954 36.767-2.24 12.819 12.461 30.094 8.105 42.051-4.422 12.169-26.836 15.932-33.24 27.004-6.46 11.162 1.433 32.457-6.818 42.275-8.274 9.853-30.61 5.755-40.462 14.029-9.83 8.251-9.64 30.967-20.813 37.427-11.061 6.404-30.649-5.06-42.824-.627-11.957 4.344-19.57 25.762-32.389 28.001-12.472 2.183-26.915-15.294-40.008-15.294-13.094 0-27.536 17.476-40.008 15.294-12.819-2.239-20.432-23.657-32.395-28.012-12.176-4.422-31.757 7.042-42.819.638-11.173-6.46-10.983-29.176-20.812-37.427-9.853-8.274-32.188-4.176-40.462-14.029-8.252-9.819-.358-31.113-6.819-42.275-6.404-11.072-28.818-14.834-33.24-27.004-4.355-11.957 10.351-29.232 8.106-42.051-2.182-12.472-21.948-23.68-21.948-36.767 0-13.099 19.766-24.306 21.949-36.778 2.245-12.819-12.461-30.083-8.106-42.052 4.428-12.17 26.836-15.932 33.24-26.992 6.46-11.174-1.433-32.457 6.819-42.287 8.273-9.852 30.609-5.744 40.467-14.017 9.824-8.262 9.634-30.979 20.807-37.439 11.062-6.403 30.649 5.072 42.824.639 11.957-4.355 19.57-25.762 32.389-28.012 12.472-2.183 26.915 15.305 40.008 15.305s27.536-17.488 40.008-15.305c12.819 2.25 20.432 23.657 32.395 28.012 12.175 4.433 31.757-7.031 42.818-.639 11.173 6.471 10.983 29.187 20.813 37.439 9.852 8.273 32.188 4.165 40.462 14.028 8.251 9.818.358 31.101 6.818 42.275 6.404 11.061 28.818 14.823 33.24 27.004 4.355 11.957-10.345 29.221-8.105 42.04 2.182 12.473 21.954 23.679 21.954 36.779z" fill="#f9bc36"/><path d="m464.446 292.773c2.183-12.472 21.954-23.679 21.954-36.767 0-13.099-19.772-24.306-21.954-36.778-2.24-12.819 12.461-30.083 8.105-42.04-4.422-12.181-26.836-15.943-33.24-27.004-6.46-11.174 1.433-32.457-6.818-42.275-8.274-9.863-30.61-5.755-40.462-14.028-9.83-8.251-9.64-30.968-20.813-37.439-11.061-6.393-30.643 5.072-42.818.639-11.963-4.355-19.576-25.762-32.395-28.012-12.472-2.183-26.915 15.305-40.008 15.305-13.094 0-27.536-17.488-40.008-15.305-12.819 2.25-20.432 23.657-32.389 28.012-12.175 4.433-31.762-7.042-42.824-.639-11.173 6.46-10.983 29.176-20.807 37.439-9.858 8.273-32.193 4.165-40.467 14.017-8.252 9.83-.358 31.113-6.819 42.287-6.404 11.061-28.812 14.823-33.24 26.992-4.355 11.968 10.351 29.232 8.106 42.052-2.183 12.471-21.949 23.677-21.949 36.777 0 13.088 19.766 24.295 21.949 36.767 2.245 12.819-12.461 30.094-8.106 42.051 4.422 12.169 26.836 15.932 33.24 27.004 6.46 11.162-1.433 32.457 6.819 42.275 8.273 9.853 30.609 5.755 40.462 14.029 9.83 8.251 9.639 30.967 20.812 37.427 11.062 6.404 30.643-5.06 42.819-.638 11.963 4.355 19.576 25.773 32.395 28.012 12.472 2.183 26.915-15.294 40.008-15.294s27.536 17.476 40.008 15.294c12.819-2.239 20.432-23.657 32.389-28.001 12.175-4.433 31.762 7.031 42.824.627 11.173-6.46 10.983-29.176 20.813-37.427 9.852-8.274 32.188-4.176 40.462-14.029 8.251-9.819.358-31.113 6.818-42.275 6.404-11.072 28.818-14.834 33.24-27.004 4.354-11.957-10.346-29.232-8.106-42.051zm-208.455 68.954c-58.386 0-105.721-47.336-105.721-105.722 0-58.397 47.336-105.733 105.721-105.733 58.397 0 105.733 47.336 105.733 105.733 0 58.386-47.336 105.722-105.733 105.722z" fill="#ffde74"/><g fill="#cfac3b"><path d="m316.633 48.246c.342.123.7.201 1.052.291-6.432-7.389-12.388-16.794-20.281-19.088 6.236 7.131 11.924 16.144 19.229 18.797z"/><path d="m41.817 338.933c3.996 4.982 11.184 8.464 17.801 12.192-3.947-4.96-11.151-8.442-17.801-12.192z"/><path d="m427.544 141.35c2.541 4.389 7.601 7.624 13.065 10.703-.482-.604-.918-1.22-1.299-1.869-6.46-11.174 1.433-32.457-6.818-42.275-2.34-2.788-5.822-4.445-9.808-5.587 4.838 10.692-.962 28.963 4.86 39.028z"/><path d="m380.264 85.047c2.094 1.757 4.77 2.944 7.736 3.829-6.012-10.154-7.4-27.004-16.782-32.434-1.623-.929-3.437-1.455-5.374-1.735 5.263 9.504 6.964 24.081 14.42 30.34z"/><path d="m464.446 292.773c2.183-12.472 21.954-23.679 21.954-36.767 0-13.099-19.772-24.306-21.954-36.778-2.24-12.819 12.461-30.083 8.105-42.04-2.026-5.576-7.826-9.393-14.14-12.942 1.019 1.265 1.836 2.62 2.374 4.109 4.355 11.957-10.345 29.232-8.106 42.051 2.183 12.461 21.944 23.679 21.944 36.767 0 13.099-19.761 24.306-21.944 36.767-2.239 12.83 12.461 30.094 8.106 42.063-4.422 12.17-26.836 15.932-33.24 26.993-6.46 11.173 1.433 32.456-6.819 42.287-8.273 9.852-30.609 5.743-40.461 14.017-9.83 8.251-9.639 30.979-20.813 37.427-11.067 6.415-30.654-5.06-42.824-.627-11.957 4.355-19.57 25.761-32.389 28.012-12.472 2.183-26.915-15.305-40.008-15.305s-27.542 17.488-40.008 15.305c-.481-.089-.941-.246-1.4-.381 3.975 4.546 8.173 8.33 13.166 9.203 12.472 2.183 26.915-15.294 40.008-15.294s27.536 17.476 40.008 15.294c12.819-2.239 20.432-23.657 32.389-28.001 12.175-4.433 31.762 7.031 42.824.627 11.173-6.46 10.983-29.176 20.813-37.427 9.852-8.274 32.188-4.176 40.462-14.029 8.251-9.819.358-31.113 6.818-42.275 6.404-11.072 28.818-14.834 33.24-27.004 4.355-11.958-10.345-29.233-8.105-42.052z"/><path d="m108.196 409.298c-7.064-5.934-20.539-5.52-30.659-8.442.532 1.176 1.148 2.284 1.965 3.247 6.516 7.759 21.731 6.886 32.725 10.199-1.153-1.948-2.452-3.672-4.031-5.004z"/><path d="m171.822 446.098c-10.384-3.784-26.153 3.986-37.438 2.362 1.674 3.023 3.7 5.542 6.393 7.098 10.759 6.225 29.546-4.4 41.76-.918-3.326-3.828-6.785-7.12-10.715-8.542z"/></g><g fill="#ffe44b"><path d="m485.841 252.311c-1.982-7.356-9.27-14.185-14.868-21.093 1.836 7.221 9.202 14.051 14.868 21.093z"/><path d="m445.569 161.122c4.926 8.52 19.312 12.73 27.71 19.76-.089-1.276-.291-2.519-.728-3.694-3.728-10.256-20.163-14.555-29.109-22.257.425 2.261 1.075 4.377 2.127 6.191z"/><path d="m398.29 104.818c8.911 7.49 28.034 4.882 37.718 11.621-.549-3.291-1.579-6.236-3.515-8.531-8.274-9.863-30.61-5.755-40.462-14.028-.358-.314-.683-.672-1.019-1.019 1.836 4.837 3.997 9.203 7.278 11.957z"/><path d="m127.24 430.088c3.146 8.229 5.385 17.768 10.58 23.086-3.157-8.251-5.385-17.801-10.58-23.086z"/><path d="m78.936 372.777c-1.013-1.758-2.457-3.303-4.131-4.758 2.167 11.632-2.211 27.866 4.697 36.084.784.929 1.724 1.702 2.743 2.408-1.808-10.726 1.64-25.191-3.309-33.734z"/><path d="m25.6 256.006c0 5.105 3.017 9.92 6.812 14.644-.33-1.22-.56-2.452-.56-3.706 0-13.088 19.766-24.295 21.949-36.767 2.245-12.819-12.466-30.094-8.112-42.051 4.434-12.17 26.847-15.932 33.246-27.004 6.466-11.162-1.427-32.457 6.824-42.275 8.273-9.853 30.609-5.755 40.462-14.028 9.824-8.252 9.639-30.968 20.813-37.428 11.061-6.404 30.643 5.061 42.819.638 11.957-4.355 19.57-25.773 32.395-28.012 12.461-2.183 26.915 15.305 40.002 15.305 13.099 0 27.542-17.488 40.014-15.305 12.819 2.239 20.433 23.657 32.39 28.012 12.175 4.422 31.751-7.042 42.824-.638 1.097.638 2.06 1.467 2.955 2.385-2.183-5.71-4.814-10.781-9.214-13.334-11.061-6.393-30.643 5.072-42.818.639-11.963-4.355-19.576-25.762-32.395-28.012-12.472-2.183-26.915 15.305-40.008 15.305-13.094 0-27.536-17.488-40.008-15.305-12.819 2.25-20.432 23.657-32.389 28.012-12.175 4.433-31.762-7.042-42.824-.639-11.173 6.46-10.983 29.176-20.807 37.439-9.858 8.273-32.193 4.165-40.467 14.017-8.252 9.83-.358 31.113-6.819 42.287-6.404 11.061-28.812 14.823-33.24 26.992-4.355 11.968 10.351 29.232 8.106 42.052-2.184 12.471-21.95 23.677-21.95 36.777z"/><path d="m53.802 303.722c-.716-4.097-3.342-8.061-6.527-11.991.084.347.207.694.275 1.042 2.245 12.819-12.461 30.094-8.106 42.051 1.019 2.799 3.017 5.15 5.53 7.255-.857-11.644 10.849-26.803 8.828-38.357z"/></g><path d="m427.589 176.829c-.034-.079-.067-.157-.101-.235-1.063-2.284-2.183-4.546-3.325-6.785-.156-.291-.302-.582-.448-.874-1.12-2.127-2.261-4.232-3.449-6.303-.213-.369-.425-.739-.638-1.108-1.176-2.038-2.396-4.053-3.639-6.035-.235-.358-.47-.727-.705-1.086-1.277-1.993-2.575-3.975-3.93-5.923-.179-.257-.358-.504-.549-.761-7.344-10.48-15.73-20.175-25-28.952-.515-.481-1.019-.985-1.545-1.478-1.4-1.287-2.833-2.553-4.277-3.807-.728-.638-1.455-1.276-2.206-1.903-1.355-1.153-2.731-2.273-4.12-3.381-.874-.683-1.736-1.377-2.62-2.049-1.343-1.041-2.709-2.06-4.075-3.056-.963-.705-1.937-1.388-2.911-2.071-1.355-.941-2.698-1.87-4.075-2.777-1.053-.705-2.116-1.377-3.191-2.06-1.344-.84-2.676-1.69-4.042-2.508-1.164-.694-2.345-1.355-3.521-2.026-1.316-.75-2.62-1.512-3.952-2.228-1.371-.739-2.76-1.422-4.148-2.127-1.186-.605-2.351-1.232-3.555-1.803-2.524-1.22-5.088-2.374-7.675-3.471-1.075-.47-2.172-.873-3.263-1.321-1.629-.661-3.252-1.321-4.91-1.937-1.181-.437-2.385-.84-3.583-1.254-1.59-.56-3.174-1.108-4.781-1.623-1.231-.391-2.474-.761-3.717-1.13-1.601-.471-3.213-.941-4.836-1.377-1.254-.336-2.519-.65-3.784-.963-1.64-.403-3.291-.784-4.949-1.142-1.265-.268-2.53-.537-3.806-.784-1.702-.336-3.415-.638-5.128-.918-1.254-.213-2.496-.426-3.751-.605-1.814-.269-3.627-.481-5.452-.694-1.187-.134-2.374-.291-3.56-.403-2.026-.202-4.076-.336-6.113-.471-1.008-.067-2.016-.156-3.023-.201-3.067-.157-6.146-.235-9.248-.235-104.233 0-189.04 84.808-189.04 189.04 0 2.866.09 5.71.224 8.554.045.974.101 1.959.162 2.945.112 1.858.263 3.705.425 5.553.101 1.12.19 2.239.308 3.359 10.217 94.672 90.585 168.631 187.921 168.631 104.244 0 189.052-84.808 189.052-189.04 0-10.86-.974-21.485-2.743-31.841-2.83-16.614-7.834-32.501-14.708-47.336zm-171.598 184.898c-58.386 0-105.721-47.336-105.721-105.722 0-58.397 47.336-105.733 105.721-105.733 58.397 0 105.733 47.336 105.733 105.733 0 58.386-47.336 105.722-105.733 105.722z" fill="#f9bc36"/><path d="m255.991 361.727c-46.731 0-86.347-30.33-100.319-72.369-42.091 6.045-80.671 15.483-114.046 27.62-2.363 6.415-4.086 12.64-2.183 17.846 4.422 12.169 26.836 15.932 33.24 27.004 6.46 11.162-1.433 32.457 6.819 42.275 8.273 9.853 30.609 5.755 40.462 14.029 9.83 8.251 9.639 30.967 20.812 37.427 11.062 6.404 30.643-5.06 42.819-.638 11.963 4.355 19.576 25.773 32.395 28.012 12.472 2.183 26.915-15.294 40.008-15.294s27.536 17.476 40.008 15.294c12.819-2.239 20.432-23.657 32.389-28.001 12.175-4.433 31.762 7.031 42.824.627 11.173-6.46 10.983-29.176 20.813-37.427 9.852-8.274 32.188-4.176 40.462-14.029 8.251-9.819.358-31.113 6.818-42.275 6.404-11.072 28.818-14.834 33.24-27.004 2.542-6.953-1.365-15.697-4.646-24.317-33.106-10.446-70.545-18.395-110.883-23.253-13.33 43.125-53.517 74.473-101.032 74.473z" fill="#ffde74"/><path d="m267.971 416.262c-51.159 0-99.687 2.9-143.267 8.095 5.436 10.233 7.07 25.997 16.071 31.203 11.062 6.404 30.643-5.06 42.819-.638 11.963 4.355 19.576 25.773 32.395 28.012 12.472 2.183 26.915-15.294 40.008-15.294s27.536 17.476 40.008 15.294c12.819-2.239 20.432-23.657 32.389-28.001 12.175-4.433 31.762 7.031 42.824.627 9.752-5.631 10.849-23.657 17.51-33.632-37.556-3.662-78.247-5.666-120.757-5.666z" fill="#ffde74" opacity=".25"/><g><g><path d="m255.991 451.372c-107.725 0-195.366-87.64-195.366-195.366 0-107.737 87.641-195.377 195.366-195.377 107.737 0 195.377 87.641 195.377 195.377.001 107.725-87.639 195.366-195.377 195.366zm0-384.407c-104.233 0-189.04 84.808-189.04 189.04s84.808 189.04 189.04 189.04c104.244 0 189.052-84.808 189.052-189.04s-84.808-189.04-189.052-189.04z" fill="#ffe384"/></g><g fill="#e2c669"><path d="m448.581 223.337c1.399 9.393 2.138 18.988 2.138 28.762 0 107.725-87.64 195.377-195.377 195.377-96.591 0-176.988-70.488-192.584-162.708 13.955 94.133 95.281 166.604 193.233 166.604 107.737 0 195.377-87.64 195.377-195.366.001-11.14-.985-22.045-2.787-32.669z"/><path d="m66.951 256.006c0-104.233 84.808-189.04 189.04-189.04 93.434 0 171.206 68.148 186.342 157.334-13.49-91.1-92.196-161.242-186.991-161.242-104.238 0-189.041 84.808-189.041 189.041 0 10.804.963 21.395 2.71 31.706-1.343-9.08-2.06-18.361-2.06-27.799z"/></g></g><g><g><path d="m165.558 156.979c-11.577 3.056-22.157 1.008-23.623-4.568-1.467-5.564 6.734-12.55 18.31-15.596 11.576-3.056 23.623 4.557 23.623 4.557s-6.734 12.562-18.31 15.607z" fill="#ffe384"/><path d="m178.215 148.941c-2.9 2.731-6.639 5.296-11.073 6.471-11.582 3.045-22.156.996-23.623-4.557-.576-2.205.364-4.624 2.408-6.941-3.124 2.765-4.702 5.811-3.991 8.497 1.466 5.576 12.046 7.624 23.623 4.568 5.294-1.388 9.571-4.781 12.656-8.038z" fill="#ead17c"/></g><g><path d="m136.158 190.152c-10.183 6.292-20.903 7.412-23.926 2.508-3.023-4.892 2.782-13.961 12.97-20.253s23.931-2.508 23.931-2.508-2.781 13.961-12.975 20.253z" fill="#ffe384"/><path d="m145.926 178.777c-1.982 3.449-4.803 6.986-8.711 9.416-10.194 6.281-20.903 7.412-23.925 2.508-1.198-1.937-1.002-4.523.28-7.333-2.183 3.56-2.81 6.93-1.338 9.292 3.023 4.904 13.743 3.784 23.926-2.508 4.663-2.877 7.764-7.356 9.768-11.375z" fill="#ead17c"/></g><g><path d="m203.64 124.366c-10.323 6.057-21.059 6.953-23.981 1.993s3.085-13.916 13.413-19.973c10.323-6.068 23.981-1.993 23.981-1.993s-3.096 13.905-13.413 19.973z" fill="#ffe384"/><path d="m213.649 113.204c-2.06 3.415-4.96 6.886-8.912 9.214-10.328 6.068-21.059 6.964-23.976 2.004-1.148-1.97-.901-4.546.443-7.322-2.262 3.493-2.956 6.852-1.545 9.259 2.922 4.96 13.659 4.064 23.981-1.993 4.719-2.776 7.916-7.188 10.009-11.162z" fill="#ead17c"/></g><g><path d="m151.983 115.342c-5.402 9.528-4.753 18.742 1.439 20.601 6.191 1.847 15.579-4.366 20.986-13.894 5.391-9.517-1.444-20.589-1.444-20.589s-15.585 4.354-20.981 13.882z" fill="#ffe384"/><path d="m163.302 105.445c-3.605 2.172-7.176 5.071-9.248 8.722-5.391 9.528-4.747 18.752 1.433 20.6 2.452.728 5.396.19 8.397-1.299-3.695 2.351-7.456 3.37-10.463 2.475-6.191-1.858-6.841-11.073-1.439-20.601 2.464-4.344 7.065-7.613 11.32-9.897z" fill="#ead17c"/></g><g><path d="m118.009 144.193c-.722 10.916 3.869 18.943 10.25 17.925 6.382-1.03 12.125-10.703 12.853-21.631.716-10.927-10.25-17.924-10.25-17.924s-12.131 10.704-12.853 21.63z" fill="#ffe384"/><path d="m123.904 130.356c-2.307 3.526-4.266 7.68-4.534 11.878-.722 10.916 3.868 18.943 10.244 17.913 2.519-.403 4.937-2.161 6.986-4.814-2.295 3.739-5.24 6.281-8.341 6.785-6.381 1.019-10.971-7.009-10.25-17.925.331-4.993 3.046-9.93 5.895-13.837z" fill="#ead17c"/></g><g><path d="m92.153 180.815c1.265 10.882 7.232 17.936 13.323 15.786 6.091-2.16 9.998-12.73 8.733-23.601s-13.312-15.775-13.312-15.775-9.998 12.73-8.744 23.59z" fill="#ffe384"/><path d="m95.45 166.148c-1.629 3.885-2.805 8.33-2.312 12.506 1.265 10.86 7.227 17.936 13.317 15.775 2.402-.851 4.461-3.023 6.001-6.012-1.584 4.087-4.025 7.132-6.981 8.184-6.09 2.15-12.058-4.904-13.323-15.786-.57-4.96 1.205-10.311 3.298-14.667z" fill="#ead17c"/></g><g><path d="m79.508 222.329c4.203 10.11 11.884 15.26 17.146 11.509 5.262-3.761 6.113-14.991 1.903-25.089-4.21-10.11-17.135-11.498-17.135-11.498s-6.118 14.979-1.914 25.078z" fill="#ffe384"/><path d="m78.64 207.316c-.493 4.187-.403 8.789 1.22 12.662 4.198 10.099 11.878 15.249 17.141 11.498 2.077-1.478 3.454-4.131 4.12-7.423-.404 4.366-1.909 7.96-4.467 9.785-5.262 3.751-12.943-1.399-17.146-11.509-1.921-4.613-1.686-10.244-.868-15.013z" fill="#ead17c"/></g><g><path d="m80.308 272.217c7.031 8.397 15.887 11.028 19.805 5.878 3.896-5.15 1.371-16.122-5.654-24.518-7.025-8.397-19.782-5.889-19.782-5.889s-1.378 16.132 5.631 24.529z" fill="#ffe384"/><path d="m75.023 258.144c.761 4.143 2.222 8.498 4.921 11.722 7.02 8.386 15.881 11.016 19.789 5.878 1.545-2.038 2.071-4.982 1.724-8.319.918 4.288.549 8.173-1.344 10.669-3.919 5.15-12.774 2.519-19.805-5.878-3.196-3.839-4.652-9.28-5.285-14.072z" fill="#ead17c"/></g><g><path d="m90.457 320.627c8.66 6.707 17.885 7.367 20.606 1.5 2.698-5.866-2.121-16.043-10.781-22.738-8.665-6.695-20.583-1.501-20.583-1.501s2.109 16.056 10.758 22.739z" fill="#ffe384"/><path d="m82.273 308.021c1.64 3.885 3.996 7.826 7.328 10.401 8.654 6.684 17.874 7.356 20.577 1.489 1.075-2.306.963-5.307-.089-8.497 1.814 4.008 2.284 7.871.974 10.714-2.721 5.867-11.946 5.207-20.606-1.5-3.947-3.057-6.533-8.061-8.184-12.607z" fill="#ead17c"/></g><g><path d="m113.727 361.335c10.888 1.131 19.083-3.168 18.299-9.584-.789-6.415-10.25-12.517-21.143-13.659-10.888-1.12-18.283 9.572-18.283 9.572s10.245 12.53 21.127 13.671z" fill="#ffe384"/><path d="m100.124 354.92c3.437 2.44 7.524 4.545 11.705 4.982 10.877 1.12 19.072-3.168 18.283-9.572-.308-2.53-1.982-5.016-4.556-7.177 3.65 2.441 6.091 5.486 6.471 8.598.784 6.415-7.412 10.715-18.299 9.584-4.972-.526-9.809-3.426-13.604-6.415z" fill="#ead17c"/></g><g><path d="m148.714 397.196c10.938-.325 18.496-5.688 16.861-11.935-1.646-6.247-11.834-11.039-22.783-10.703-10.938.336-16.838 11.924-16.838 11.924s11.827 11.049 22.76 10.714z" fill="#ffe384"/><path d="m134.372 392.661c3.74 1.959 8.072 3.505 12.271 3.37 10.938-.336 18.484-5.676 16.838-11.935-.639-2.463-2.631-4.702-5.469-6.483 3.941 1.926 6.768 4.613 7.563 7.647 1.635 6.248-5.923 11.61-16.861 11.935-4.993.157-10.166-2.071-14.342-4.534z" fill="#ead17c"/></g><g><path d="m190.675 416.038c10.401-3.437 16.094-10.737 12.741-16.267-3.37-5.509-14.499-7.177-24.888-3.717-10.39 3.459-12.73 16.245-12.73 16.245s14.51 7.198 24.877 3.739z" fill="#ffe384"/><path d="m175.645 415.814c4.137.795 8.727 1.041 12.719-.291 10.378-3.459 16.077-10.736 12.713-16.256-1.316-2.172-3.863-3.751-7.098-4.657 4.332.727 7.803 2.496 9.438 5.161 3.353 5.53-2.34 12.83-12.741 16.267-4.736 1.579-10.334.94-15.031-.224z" fill="#ead17c"/></g><g><path d="m107.704 215.365c-7.451 8.027-8.957 17.141-3.37 20.388 5.609 3.224 16.178-.649 23.629-8.677 7.451-8.016 3.364-20.354 3.364-20.354s-16.167.638-23.623 8.643z" fill="#ffe384"/><path d="m121.004 208.357c-4.014 1.287-8.156 3.269-11.017 6.359-7.445 8.016-8.957 17.129-3.359 20.365 2.206 1.277 5.189 1.422 8.458.672-4.137 1.444-8.033 1.556-10.754 0-5.587-3.247-4.081-12.36 3.37-20.388 3.405-3.65 8.634-5.777 13.302-7.008z" fill="#ead17c"/></g><g><path d="m103.897 261.436c-2.731 10.602.291 19.335 6.751 19.525 6.46.168 13.91-8.285 16.642-18.887 2.726-10.602-6.746-19.503-6.746-19.503s-13.915 8.273-16.647 18.865z" fill="#ffe384"/><path d="m112.249 248.93c-2.911 3.046-5.61 6.774-6.656 10.837-2.726 10.591.297 19.324 6.746 19.503 2.558.079 5.251-1.21 7.764-3.437-2.945 3.247-6.32 5.206-9.455 5.127-6.46-.19-9.483-8.923-6.751-19.525 1.249-4.836 4.831-9.191 8.352-12.505z" fill="#ead17c"/></g><g><path d="m110.021 308.368c-.347 10.938 4.523 18.809 10.86 17.577 6.348-1.254 11.761-11.129 12.103-22.078.347-10.938-10.855-17.543-10.855-17.543s-11.761 11.117-12.108 22.044z" fill="#ffe384"/><path d="m115.434 294.34c-2.183 3.605-3.997 7.837-4.12 12.035-.347 10.938 4.518 18.798 10.854 17.555 2.508-.492 4.853-2.34 6.818-5.06-2.161 3.807-5.027 6.46-8.106 7.076-6.336 1.231-11.207-6.639-10.86-17.577.158-4.994 2.699-10.021 5.414-14.029z" fill="#ead17c"/></g><g><path d="m126.955 339.235c2.558 10.647 9.321 16.939 15.108 14.085 5.794-2.889 8.42-13.827 5.856-24.485-2.547-10.636-15.092-14.073-15.092-14.073s-8.419 13.826-5.872 24.473z" fill="#ffe384"/><path d="m128.483 324.266c-1.153 4.064-1.791 8.609-.806 12.707 2.547 10.636 9.315 16.939 15.098 14.073 2.295-1.142 4.069-3.549 5.245-6.684-1.081 4.243-3.146 7.557-5.956 8.957-5.788 2.855-12.55-3.438-15.108-14.085-1.16-4.869-.04-10.389 1.527-14.968z" fill="#ead17c"/></g><g><path d="m158.801 374.748c5.127 9.662 13.244 14.073 18.148 9.863 4.887-4.232 4.691-15.483-.448-25.168-5.116-9.662-18.126-9.852-18.126-9.852s-4.696 15.484.426 25.157z" fill="#ffe384"/><path d="m156.539 359.88c-.101 4.21.42 8.777 2.396 12.495 5.117 9.651 13.244 14.073 18.132 9.852 1.931-1.668 3.056-4.433 3.409-7.769.011 4.377-1.164 8.094-3.526 10.154-4.904 4.21-13.021-.201-18.148-9.863-2.335-4.423-2.632-10.055-2.263-14.869z" fill="#ead17c"/></g><g><path d="m193.586 390.825c7.087 8.341 15.976 10.883 19.85 5.721 3.857-5.195 1.243-16.133-5.866-24.474-7.087-8.34-19.828-5.721-19.828-5.721s-1.242 16.133 5.844 24.474z" fill="#ffe384"/><path d="m188.168 376.785c.817 4.154 2.306 8.487 5.038 11.689 7.082 8.329 15.965 10.894 19.834 5.721 1.522-2.06 2.026-5.004 1.652-8.33.952 4.277.61 8.161-1.254 10.681-3.874 5.161-12.763 2.62-19.85-5.721-3.237-3.818-4.743-9.248-5.42-14.04z" fill="#ead17c"/></g><path d="m183.174 120.481c-14.062 6.93-27.004 16.122-38.519 26.702-11.47 10.625-21.435 22.951-28.655 36.745-7.266 13.748-11.677 28.952-12.713 44.425-.722 15.506-.095 31.27 1.825 46.708 2.021 15.439 5.626 30.677 11.65 44.906 5.911 14.308 14.476 27.194 24.082 39.565 8.442 12.998 21.815 21.272 35.866 27.867 7.036 3.302 14.347 6.101 21.77 8.565 7.412 2.553 14.958 4.736 22.582 6.639l-.101.515c-15.551-2.519-30.99-6.292-45.746-12.293-7.389-2.956-14.532-6.65-21.216-11.184-3.331-2.284-6.527-4.825-9.472-7.669-3.045-2.878-5.497-6.147-7.915-9.181-4.848-6.202-9.662-12.584-13.917-19.38-4.221-6.796-7.842-14.006-10.832-21.428-5.934-14.902-9.287-30.643-11-46.406-1.679-15.809-2.054-31.617-1.041-47.504 1.332-15.92 6.152-31.493 13.832-45.421 7.697-13.928 18.098-26.186 29.926-36.655 11.873-10.424 25.067-19.346 39.37-26.008z" fill="#ffe384"/></g><g><g><path d="m342.748 156.979c11.576 3.056 22.156 1.008 23.623-4.568 1.467-5.564-6.728-12.55-18.316-15.596-11.576-3.056-23.623 4.557-23.623 4.557s6.739 12.562 18.316 15.607z" fill="#ffe384"/><path d="m330.091 148.941c2.9 2.731 6.633 5.296 11.072 6.471 11.582 3.045 22.162.996 23.629-4.557.571-2.205-.369-4.624-2.418-6.941 3.135 2.765 4.702 5.811 3.997 8.497-1.467 5.576-12.047 7.624-23.623 4.568-5.296-1.388-9.573-4.781-12.657-8.038z" fill="#ead17c"/></g><g><path d="m372.148 190.152c10.188 6.292 20.902 7.412 23.925 2.508 3.023-4.892-2.788-13.961-12.965-20.253-10.188-6.292-23.937-2.508-23.937-2.508s2.789 13.961 12.977 20.253z" fill="#ffe384"/><path d="m362.374 178.777c1.982 3.449 4.814 6.986 8.721 9.416 10.188 6.281 20.903 7.412 23.925 2.508 1.187-1.937.997-4.523-.291-7.333 2.183 3.56 2.81 6.93 1.343 9.292-3.023 4.904-13.737 3.784-23.925-2.508-4.668-2.877-7.769-7.356-9.773-11.375z" fill="#ead17c"/></g><g><path d="m304.665 124.366c10.323 6.057 21.06 6.953 23.976 1.993 2.922-4.96-3.079-13.916-13.407-19.973-10.323-6.068-23.981-1.993-23.981-1.993s3.095 13.905 13.412 19.973z" fill="#ffe384"/><path d="m294.651 113.204c2.06 3.415 4.96 6.886 8.923 9.214 10.323 6.068 21.059 6.964 23.971 2.004 1.148-1.97.895-4.546-.448-7.322 2.262 3.493 2.956 6.852 1.545 9.259-2.917 4.96-13.654 4.064-23.976-1.993-4.72-2.776-7.922-7.188-10.015-11.162z" fill="#ead17c"/></g><g><path d="m356.317 115.342c5.407 9.528 4.758 18.742-1.433 20.601-6.191 1.847-15.585-4.366-20.986-13.894-5.391-9.517 1.438-20.589 1.438-20.589s15.585 4.354 20.981 13.882z" fill="#ffe384"/><path d="m344.998 105.445c3.605 2.172 7.176 5.071 9.248 8.722 5.396 9.528 4.758 18.752-1.433 20.6-2.447.728-5.391.19-8.391-1.299 3.694 2.351 7.451 3.37 10.463 2.475 6.191-1.858 6.84-11.073 1.433-20.601-2.464-4.344-7.06-7.613-11.32-9.897z" fill="#ead17c"/></g><g><path d="m390.296 144.193c.717 10.916-3.874 18.943-10.255 17.925-6.382-1.03-12.125-10.703-12.842-21.631-.727-10.927 10.244-17.924 10.244-17.924s12.136 10.704 12.853 21.63z" fill="#ffe384"/><path d="m384.407 130.356c2.306 3.526 4.265 7.68 4.534 11.878.717 10.916-3.874 18.943-10.244 17.913-2.519-.403-4.937-2.161-6.997-4.814 2.306 3.739 5.251 6.281 8.341 6.785 6.381 1.019 10.971-7.009 10.255-17.925-.325-4.993-3.045-9.93-5.889-13.837z" fill="#ead17c"/></g><g><path d="m416.147 180.815c-1.265 10.882-7.232 17.936-13.323 15.786-6.09-2.16-9.998-12.73-8.733-23.601s13.312-15.775 13.312-15.775 10.009 12.73 8.744 23.59z" fill="#ffe384"/><path d="m412.855 166.148c1.623 3.885 2.799 8.33 2.306 12.506-1.254 10.86-7.221 17.936-13.312 15.775-2.407-.851-4.456-3.023-6.001-6.012 1.579 4.087 4.019 7.132 6.975 8.184 6.091 2.15 12.058-4.904 13.323-15.786.583-4.96-1.197-10.311-3.291-14.667z" fill="#ead17c"/></g><g><path d="m428.798 222.329c-4.21 10.11-11.89 15.26-17.152 11.509-5.262-3.761-6.113-14.991-1.903-25.089 4.21-10.11 17.14-11.498 17.14-11.498s6.113 14.979 1.915 25.078z" fill="#ffe384"/><path d="m429.66 207.316c.504 4.187.403 8.789-1.209 12.662-4.21 10.099-11.879 15.249-17.141 11.498-2.082-1.478-3.46-4.131-4.12-7.423.392 4.366 1.903 7.96 4.456 9.785 5.262 3.751 12.942-1.399 17.152-11.509 1.915-4.613 1.68-10.244.862-15.013z" fill="#ead17c"/></g><g><path d="m427.992 272.217c-7.02 8.397-15.887 11.028-19.794 5.878-3.908-5.15-1.377-16.122 5.642-24.518 7.031-8.397 19.783-5.889 19.783-5.889s1.389 16.132-5.631 24.529z" fill="#ffe384"/><path d="m433.288 258.144c-.772 4.143-2.228 8.498-4.926 11.722-7.02 8.386-15.886 11.016-19.783 5.878-1.545-2.038-2.072-4.982-1.736-8.319-.918 4.288-.549 8.173 1.355 10.669 3.907 5.15 12.774 2.519 19.794-5.878 3.202-3.839 4.657-9.28 5.296-14.072z" fill="#ead17c"/></g><g><path d="m417.849 320.627c-8.666 6.707-17.891 7.367-20.6 1.5-2.709-5.866 2.116-16.043 10.77-22.738 8.665-6.695 20.589-1.501 20.589-1.501s-2.116 16.056-10.759 22.739z" fill="#ffe384"/><path d="m426.033 308.021c-1.635 3.885-3.997 7.826-7.322 10.401-8.654 6.684-17.88 7.356-20.589 1.489-1.075-2.306-.963-5.307.1-8.497-1.825 4.008-2.295 7.871-.974 10.714 2.71 5.867 11.935 5.207 20.6-1.5 3.942-3.057 6.528-8.061 8.185-12.607z" fill="#ead17c"/></g><g><path d="m394.584 361.335c-10.894 1.131-19.089-3.168-18.305-9.584.795-6.415 10.256-12.517 21.138-13.659 10.894-1.12 18.294 9.572 18.294 9.572s-10.256 12.53-21.127 13.671z" fill="#ffe384"/><path d="m408.176 354.92c-3.437 2.44-7.513 4.545-11.7 4.982-10.882 1.12-19.077-3.168-18.282-9.572.302-2.53 1.982-5.016 4.557-7.177-3.65 2.441-6.091 5.486-6.471 8.598-.784 6.415 7.412 10.715 18.305 9.584 4.959-.526 9.795-3.426 13.591-6.415z" fill="#ead17c"/></g><g><path d="m359.586 397.196c-10.938-.325-18.49-5.688-16.855-11.935 1.646-6.247 11.839-11.039 22.778-10.703 10.938.336 16.838 11.924 16.838 11.924s-11.823 11.049-22.761 10.714z" fill="#ffe384"/><path d="m373.928 392.661c-3.74 1.959-8.061 3.505-12.271 3.37-10.932-.336-18.478-5.676-16.833-11.935.638-2.463 2.625-4.702 5.469-6.483-3.941 1.926-6.773 4.613-7.563 7.647-1.635 6.248 5.917 11.61 16.855 11.935 4.994.157 10.178-2.071 14.343-4.534z" fill="#ead17c"/></g><g><path d="m317.624 416.038c-10.39-3.437-16.089-10.737-12.73-16.267 3.358-5.509 14.499-7.177 24.882-3.717 10.39 3.459 12.724 16.245 12.724 16.245s-14.503 7.198-24.876 3.739z" fill="#ffe384"/><path d="m332.66 415.814c-4.142.795-8.732 1.041-12.718-.291-10.379-3.459-16.077-10.736-12.719-16.256 1.321-2.172 3.868-3.751 7.098-4.657-4.327.727-7.803 2.496-9.427 5.161-3.359 5.53 2.34 12.83 12.73 16.267 4.736 1.579 10.334.94 15.036-.224z" fill="#ead17c"/></g><g><path d="m400.596 215.365c7.456 8.027 8.957 17.141 3.37 20.388-5.598 3.224-16.167-.649-23.623-8.677-7.456-8.016-3.37-20.354-3.37-20.354s16.178.638 23.623 8.643z" fill="#ffe384"/><path d="m387.296 208.357c4.019 1.287 8.161 3.269 11.017 6.359 7.456 8.016 8.957 17.129 3.37 20.365-2.217 1.277-5.195 1.422-8.464.672 4.131 1.444 8.027 1.556 10.748 0 5.587-3.247 4.086-12.36-3.37-20.388-3.393-3.65-8.622-5.777-13.301-7.008z" fill="#ead17c"/></g><g><path d="m404.414 261.436c2.721 10.602-.302 19.335-6.751 19.525-6.471.168-13.917-8.285-16.648-18.887-2.732-10.602 6.751-19.503 6.751-19.503s13.905 8.273 16.648 18.865z" fill="#ffe384"/><path d="m396.05 248.93c2.922 3.046 5.62 6.774 6.662 10.837 2.732 10.591-.291 19.324-6.751 19.503-2.553.079-5.251-1.21-7.759-3.437 2.945 3.247 6.315 5.206 9.46 5.127 6.449-.19 9.471-8.923 6.751-19.525-1.253-4.836-4.836-9.191-8.363-12.505z" fill="#ead17c"/></g><g><path d="m398.29 308.368c.335 10.938-4.523 18.809-10.871 17.577-6.337-1.254-11.756-11.129-12.103-22.078-.336-10.938 10.86-17.543 10.86-17.543s11.767 11.117 12.114 22.044z" fill="#ffe384"/><path d="m392.871 294.34c2.183 3.605 3.997 7.837 4.12 12.035.347 10.938-4.523 18.798-10.849 17.555-2.519-.492-4.859-2.34-6.829-5.06 2.161 3.807 5.038 6.46 8.106 7.076 6.348 1.231 11.207-6.639 10.871-17.577-.168-4.994-2.698-10.021-5.419-14.029z" fill="#ead17c"/></g><g><path d="m381.351 339.235c-2.553 10.647-9.315 16.939-15.114 14.085-5.788-2.889-8.408-13.827-5.856-24.485 2.553-10.636 15.103-14.073 15.103-14.073s8.408 13.826 5.867 24.473z" fill="#ffe384"/><path d="m379.828 324.266c1.153 4.064 1.78 8.609.794 12.707-2.541 10.636-9.303 16.939-15.092 14.073-2.295-1.142-4.064-3.549-5.251-6.684 1.086 4.243 3.157 7.557 5.956 8.957 5.799 2.855 12.562-3.438 15.114-14.085 1.154-4.869.046-10.389-1.521-14.968z" fill="#ead17c"/></g><g><path d="m349.51 374.748c-5.133 9.662-13.256 14.073-18.154 9.863-4.887-4.232-4.696-15.483.442-25.168 5.128-9.662 18.132-9.852 18.132-9.852s4.696 15.484-.42 25.157z" fill="#ffe384"/><path d="m351.76 359.88c.106 4.21-.414 8.777-2.396 12.495-5.117 9.651-13.244 14.073-18.126 9.852-1.937-1.668-3.056-4.433-3.415-7.769-.011 4.377 1.164 8.094 3.532 10.154 4.898 4.21 13.021-.201 18.154-9.863 2.329-4.423 2.632-10.055 2.251-14.869z" fill="#ead17c"/></g><g><path d="m314.724 390.825c-7.098 8.341-15.976 10.883-19.855 5.721-3.857-5.195-1.243-16.133 5.866-24.474 7.087-8.34 19.822-5.721 19.822-5.721s1.243 16.133-5.833 24.474z" fill="#ffe384"/><path d="m320.132 376.785c-.806 4.154-2.307 8.487-5.038 11.689-7.076 8.329-15.965 10.894-19.828 5.721-1.522-2.06-2.026-5.004-1.651-8.33-.957 4.277-.61 8.161 1.254 10.681 3.879 5.161 12.757 2.62 19.855-5.721 3.23-3.818 4.736-9.248 5.408-14.04z" fill="#ead17c"/></g><path d="m325.131 120.481c14.068 6.93 26.998 16.122 38.519 26.702 11.475 10.625 21.429 22.951 28.65 36.745 7.266 13.748 11.689 28.952 12.719 44.425.716 15.506.101 31.27-1.825 46.708-2.015 15.439-5.631 30.677-11.655 44.906-5.911 14.308-14.465 27.194-24.071 39.565-8.453 12.998-21.82 21.272-35.871 27.867-7.042 3.302-14.347 6.101-21.776 8.565-7.406 2.553-14.952 4.736-22.582 6.639l.101.515c15.551-2.519 30.995-6.292 45.746-12.293 7.395-2.956 14.538-6.65 21.216-11.184 3.337-2.284 6.527-4.825 9.483-7.669 3.034-2.878 5.497-6.147 7.916-9.181 4.836-6.202 9.651-12.584 13.905-19.38 4.221-6.796 7.848-14.006 10.837-21.428 5.933-14.902 9.281-30.643 10.994-46.406 1.691-15.809 2.06-31.617 1.041-47.504-1.332-15.92-6.147-31.493-13.827-45.421-7.703-13.928-18.104-26.186-29.926-36.655-11.879-10.424-25.068-19.346-39.376-26.008z" fill="#ffe384"/></g><path d="m169.807 194.821c19.156-26.948 50.605-44.548 86.185-44.548 33.263 0 62.92 15.372 82.3 39.387 45.096 1.164 88.816 4.321 130.599 9.259 3-7.77 5.945-15.472 3.66-21.731-4.422-12.181-26.836-15.943-33.24-27.004-6.46-11.174 1.433-32.457-6.818-42.275-8.274-9.863-30.61-5.755-40.462-14.028-9.83-8.251-9.64-30.968-20.813-37.439-11.061-6.393-30.643 5.072-42.818.639-11.963-4.355-19.576-25.762-32.395-28.012-12.472-2.183-26.915 15.305-40.008 15.305-13.094 0-27.536-17.488-40.008-15.305-12.819 2.25-20.432 23.657-32.389 28.012-12.175 4.433-31.762-7.042-42.824-.639-11.173 6.46-10.983 29.176-20.807 37.439-9.858 8.273-32.193 4.165-40.467 14.017-8.252 9.83-.358 31.113-6.819 42.287-6.404 11.061-28.812 14.823-33.24 26.992-3.532 9.685 5.435 22.851 7.781 34.315 38.76-7.244 79.792-12.876 122.583-16.671z" fill="#ffde74" opacity=".31"/><g fill="#ffde74" opacity=".56"><path d="m464.446 219.228c-.784-4.512.537-9.595 2.385-14.79-28.963.728-69.402 3.661-114.622 7.759 4.601 10.076 7.669 20.981 8.9 32.446 43.036-5.564 81.405-10.513 109.315-14.096-2.933-3.718-5.296-7.457-5.978-11.319z"/><path d="m150.27 256.006c0-7.759.862-15.316 2.446-22.593-50.677 5.945-95.522 11.521-125.207 15.282-1.181 2.374-1.909 4.814-1.909 7.311 0 10.837 13.519 20.387 19.418 30.419 28.885-3.996 65.898-8.979 106.466-14.364-.8-5.24-1.214-10.603-1.214-16.055z"/></g><g><g><path d="m374.611 256.006c0 65.506-53.107 118.608-118.619 118.608-65.506 0-118.608-53.102-118.608-118.608 0-65.518 53.102-118.619 118.608-118.619 65.511-.001 118.619 53.101 118.619 118.619z" fill="#ffde74"/><path d="m258.746 298.404c-41.368 0-78.986-7.96-107.087-20.959 6.801 49.027 50.896 86.879 104.31 86.879 52.475 0 95.959-36.51 103.941-84.271-27.373 11.455-62.645 18.351-101.164 18.351z" fill="#e5cc8c"/><path d="m151.401 261.592c0-59.83 48.5-108.319 108.325-108.319 36.493 0 68.742 18.059 88.368 45.712-19.105-30.788-53.197-51.31-92.102-51.31-59.819 0-108.319 48.5-108.319 108.33 0 23.332 7.4 44.917 19.95 62.607-10.277-16.57-16.222-36.095-16.222-57.02z" fill="#d9af2f"/><path d="m141.207 258.726c0-65.495 53.102-118.608 118.614-118.608 25 0 48.187 7.759 67.309 20.97-19.822-14.879-44.447-23.702-71.138-23.702-65.506 0-118.608 53.102-118.608 118.619 0 40.506 20.315 76.243 51.299 97.638-28.829-21.629-47.476-56.09-47.476-94.917z" fill="#ffde74"/><path d="m356.194 192.559c9.729 17.208 15.305 37.081 15.305 58.263 0 65.506-53.101 118.619-118.608 118.619-42.169 0-79.165-22.034-100.191-55.173 20.354 36.017 58.968 60.345 103.292 60.345 65.512 0 118.619-53.102 118.619-118.608 0-23.354-6.774-45.096-18.417-63.446z" fill="#d9af2f"/><path d="m354.817 211.659c4.624 12.046 7.165 25.089 7.165 38.748 0 59.83-48.495 108.33-108.319 108.33-44.022 0-81.88-26.277-98.825-63.995 15.59 40.686 54.987 69.582 101.153 69.582 59.83 0 108.331-48.5 108.331-108.319 0-15.808-3.415-30.799-9.505-44.346z" fill="#fcca32"/></g><path d="m345.692 233.043c0 39.577-39.006-11.397-87.137-11.397-48.119 0-87.131 50.974-87.131 11.397s39.012-71.653 87.131-71.653c48.131 0 87.137 32.076 87.137 71.653z" fill="#ffde74" opacity=".53"/><path d="m304.805 205.222c0 14.107-20.712-4.064-46.25-4.064s-46.25 18.171-46.25 4.064c0-14.106 20.712-25.538 46.25-25.538s46.25 11.431 46.25 25.538z" fill="#ffebab" opacity=".43"/></g></g></svg>