<svg width="200" height="60" viewBox="0 0 200 60" xmlns="http://www.w3.org/2000/svg">
  <!-- Robot Icon with brand colors -->
  <g transform="translate(5, 5) scale(0.024)">
    <!-- Main robot body -->
    <path d="m1287.5 1335.55h-527c-66.237 0-120.125-53.888-120.125-120.125v-527c0-66.237 53.888-120.125 120.125-120.125h527c66.237 0 120.125 53.888 120.125 120.125v526.999c0 66.238-53.888 120.126-120.125 120.126zm-527-720.75c-40.597 0-73.625 33.028-73.625 73.625v526.999c0 40.597 33.028 73.625 73.625 73.625h527c40.597 0 73.625-33.028 73.625-73.625v-526.999c0-40.597-33.028-73.625-73.625-73.625z" fill="#2563eb"/>

    <!-- Robot base -->
    <path d="m1552.55 1768h-1057.1c-12.841 0-23.25-10.409-23.25-23.25v-142.987c0-92.946 75.617-168.562 168.562-168.562h766.475c92.946 0 168.562 75.616 168.562 168.562v142.987c.001 12.841-10.409 23.25-23.249 23.25zm-1033.85-46.5h1010.6v-119.737c0-67.306-54.757-122.062-122.062-122.062h-766.476c-67.305 0-122.062 54.757-122.062 122.062z" fill="#2563eb"/>

    <!-- Center panel -->
    <path d="m1120.1 1479.7h-192.2c-12.841 0-23.25-10.409-23.25-23.25v-144.15c0-12.841 10.409-23.25 23.25-23.25h192.2c12.841 0 23.25 10.409 23.25 23.25v144.151c0 12.84-10.409 23.249-23.25 23.249zm-168.95-46.5h145.7v-97.651h-145.7z" fill="#10b981"/>

    <!-- Left eye -->
    <circle cx="880" cy="856" r="72.85" fill="#10b981"/>

    <!-- Right eye -->
    <circle cx="1168" cy="856" r="72.85" fill="#10b981"/>

    <!-- Antenna circles -->
    <circle cx="447.4" cy="880" r="24.8" fill="#2563eb"/>
    <circle cx="1600.6" cy="880" r="24.8" fill="#2563eb"/>

    <!-- Antenna lines -->
    <rect x="495" y="868" width="168" height="24" rx="12" fill="#2563eb"/>
    <rect x="1384" y="868" width="168" height="24" rx="12" fill="#2563eb"/>

    <!-- Smile arc -->
    <path d="m973.037 443.712c-5.95 0-11.9-2.27-16.44-6.81-9.08-9.08-9.08-23.801 0-32.881 18.005-18.005 41.943-27.921 67.403-27.921s49.398 9.916 67.404 27.922c9.079 9.079 9.08 23.801 0 32.88-9.08 9.08-23.801 9.081-32.881 0-9.223-9.222-21.484-14.302-34.523-14.302s-25.3 5.079-34.523 14.302c-4.54 4.54-10.49 6.81-16.44 6.81z" fill="#10b981"/>

    <!-- Mouth panel -->
    <path d="m1145.675 1191.4h-243.35c-38.46 0-69.75-31.289-69.75-69.75v-3.1c0-38.46 31.29-69.75 69.75-69.75h243.35c38.461 0 69.75 31.29 69.75 69.75v3.1c0 38.46-31.29 69.75-69.75 69.75zm-243.35-96.1c-12.82 0-23.25 10.43-23.25 23.25v3.1c0 12.82 10.43 23.25 23.25 23.25h243.35c12.82 0 23.25-10.43 23.25-23.25v-3.1c0-12.82-10.43-23.25-23.25-23.25z" fill="#2563eb"/>

    <!-- Bottom detail -->
    <path d="m1312.3 1768h-576.6c-12.841 0-23.25-10.409-23.25-23.25v-144.15c0-12.841 10.409-23.25 23.25-23.25h576.6c12.841 0 23.25 10.409 23.25 23.25v144.15c0 12.841-10.41 23.25-23.25 23.25zm-553.35-46.5h530.1v-97.65h-530.1z" fill="#2563eb"/>

    <!-- Side supports -->
    <rect x="592" y="1625" width="46.5" height="119.75" rx="23.25" fill="#10b981"/>
    <rect x="1409" y="1625" width="46.5" height="119.75" rx="23.25" fill="#10b981"/>
  </g>

  <!-- Tamma Text -->
  <text x="65" y="40" font-family="Inter, system-ui, -apple-system, sans-serif" font-size="32" font-weight="700" fill="#1f2937" letter-spacing="-0.5">
    Tamma
  </text>
</svg>
