<svg enable-background="new 0 0 2048 2048" viewBox="0 0 2048 2048" xmlns="http://www.w3.org/2000/svg"><g id="_x31_0903.S2_-_Smart_Robotic"><g><g><path d="m1287.5 1335.55h-527c-66.237 0-120.125-53.888-120.125-120.125v-527c0-66.237 53.888-120.125 120.125-120.125h527c66.237 0 120.125 53.888 120.125 120.125v526.999c0 66.238-53.888 120.126-120.125 120.126zm-527-720.75c-40.597 0-73.625 33.028-73.625 73.625v526.999c0 40.597 33.028 73.625 73.625 73.625h527c40.597 0 73.625-33.028 73.625-73.625v-526.999c0-40.597-33.028-73.625-73.625-73.625z" fill="#212121"/></g><g><path d="m1552.55 1768h-1057.1c-12.841 0-23.25-10.409-23.25-23.25v-142.987c0-92.946 75.617-168.562 168.562-168.562h766.475c92.946 0 168.562 75.616 168.562 168.562v142.987c.001 12.841-10.409 23.25-23.249 23.25zm-1033.85-46.5h1010.6v-119.737c0-67.306-54.757-122.062-122.062-122.062h-766.476c-67.305 0-122.062 54.757-122.062 122.062z" fill="#212121"/></g><g><path d="m1120.1 1479.7h-192.2c-12.841 0-23.25-10.409-23.25-23.25v-144.15c0-12.841 10.409-23.25 23.25-23.25h192.2c12.841 0 23.25 10.409 23.25 23.25v144.151c0 12.84-10.409 23.249-23.25 23.249zm-168.95-46.5h145.7v-97.651h-145.7z" fill="#212121"/></g><g><path d="m879.85 975.175c-65.81 0-119.35-53.54-119.35-119.35s53.54-119.35 119.35-119.35 119.349 53.54 119.349 119.35-53.539 119.35-119.349 119.35zm0-192.2c-40.169 0-72.85 32.68-72.85 72.85s32.681 72.85 72.85 72.85c40.17 0 72.85-32.681 72.85-72.85 0-40.17-32.68-72.85-72.85-72.85z" fill="#212121"/></g><g><path d="m1168.15 975.175c-65.81 0-119.35-53.54-119.35-119.35s53.541-119.35 119.35-119.35c65.81 0 119.35 53.54 119.35 119.35s-53.54 119.35-119.35 119.35zm0-192.2c-40.17 0-72.85 32.68-72.85 72.85s32.68 72.85 72.85 72.85 72.85-32.681 72.85-72.85c0-40.17-32.68-72.85-72.85-72.85z" fill="#212121"/></g><g><path d="m447.4 951.15c-39.315 0-71.3-31.985-71.3-71.3s31.985-71.3 71.3-71.3 71.3 31.985 71.3 71.3-31.985 71.3-71.3 71.3zm0-96.1c-13.675 0-24.8 11.125-24.8 24.8s11.125 24.8 24.8 24.8 24.8-11.125 24.8-24.8c0-13.674-11.126-24.8-24.8-24.8z" fill="#212121"/></g><g><path d="m663.625 903.1h-168.175c-12.841 0-23.25-10.409-23.25-23.25s10.409-23.25 23.25-23.25h168.175c12.841 0 23.25 10.409 23.25 23.25s-10.409 23.25-23.25 23.25z" fill="#212121"/></g><g><path d="m1600.6 951.15c-39.315 0-71.301-31.985-71.301-71.3s31.986-71.3 71.301-71.3 71.3 31.985 71.3 71.3-31.985 71.3-71.3 71.3zm0-96.1c-13.675 0-24.801 11.125-24.801 24.8s11.125 24.8 24.801 24.8c13.674 0 24.8-11.125 24.8-24.8 0-13.674-11.126-24.8-24.8-24.8z" fill="#212121"/></g><g><path d="m1552.55 903.1h-168.175c-12.841 0-23.25-10.409-23.25-23.25s10.409-23.25 23.25-23.25h168.175c12.841 0 23.25 10.409 23.25 23.25s-10.41 23.25-23.25 23.25z" fill="#212121"/></g><g><path d="m973.037 443.712c-5.95 0-11.9-2.27-16.44-6.81-9.08-9.08-9.08-23.801 0-32.881 18.005-18.005 41.943-27.921 67.403-27.921s49.398 9.916 67.404 27.922c9.079 9.079 9.08 23.801 0 32.88-9.08 9.08-23.801 9.081-32.881 0-9.223-9.222-21.484-14.302-34.523-14.302s-25.3 5.079-34.523 14.302c-4.54 4.54-10.49 6.81-16.44 6.81z" fill="#212121"/></g><g><path d="m1142.914 375.761c-5.952 0-11.902-2.271-16.442-6.812-27.366-27.374-63.758-42.449-102.472-42.449-38.715 0-75.106 15.075-102.471 42.449-9.077 9.082-23.798 9.084-32.88.005-9.081-9.078-9.083-23.799-.005-32.88 36.147-36.16 84.218-56.074 135.356-56.074 51.137 0 99.208 19.914 135.356 56.073 9.079 9.081 9.076 23.802-.005 32.881-4.539 4.538-10.488 6.807-16.437 6.807z" fill="#212121"/></g><g><path d="m1024 518.7c-.756 0-1.531-.039-2.287-.116-.756-.078-1.511-.194-2.257-.339-.736-.145-1.481-.339-2.208-.562-.717-.213-1.444-.474-2.142-.765-.697-.291-1.394-.62-2.053-.969-.669-.359-1.327-.746-1.957-1.173-.64-.416-1.25-.872-1.84-1.346-.591-.484-1.163-1.008-1.695-1.541-.534-.533-1.057-1.104-1.541-1.695-.474-.591-.93-1.211-1.346-1.841-.427-.63-.814-1.289-1.172-1.957-.349-.658-.678-1.356-.969-2.054-.29-.697-.552-1.424-.765-2.141-.223-.727-.416-1.473-.562-2.209-.155-.746-.261-1.501-.339-2.257-.078-.755-.116-1.531-.116-2.286 0-.756.039-1.531.116-2.286.078-.756.184-1.511.339-2.257.146-.736.339-1.482.562-2.209.213-.717.475-1.443.765-2.141.29-.697.62-1.395.969-2.054.359-.668.745-1.327 1.172-1.957.416-.639.872-1.249 1.346-1.841.484-.591 1.008-1.162 1.541-1.695.533-.543 1.104-1.056 1.695-1.54.59-.475 1.201-.93 1.84-1.356.63-.417 1.289-.804 1.957-1.163.658-.359 1.356-.678 2.053-.969.698-.29 1.425-.552 2.142-.765.727-.223 1.472-.416 2.208-.562.746-.155 1.501-.262 2.257-.339 1.521-.155 3.052-.155 4.572 0 .756.077 1.512.184 2.257.339.737.146 1.483.339 2.209.562.717.213 1.444.475 2.141.765.697.291 1.385.61 2.054.969s1.327.746 1.956 1.163c.63.426 1.25.881 1.841 1.356.591.484 1.163.998 1.695 1.54.533.533 1.056 1.104 1.54 1.695.475.591.93 1.201 1.347 1.841.426.63.814 1.289 1.172 1.957.348.659.677 1.357.969 2.054.29.698.552 1.424.765 2.141.222.727.416 1.473.562 2.209.154.746.261 1.501.339 2.257.078.755.116 1.53.116 2.286 0 .755-.039 1.531-.116 2.286-.078.756-.185 1.511-.339 2.257-.146.736-.34 1.482-.562 2.209-.214.717-.475 1.444-.765 2.141-.291.698-.621 1.395-.969 2.054-.359.668-.746 1.327-1.172 1.957-.417.63-.872 1.25-1.347 1.841-.484.591-1.008 1.163-1.54 1.695-.533.533-1.104 1.056-1.695 1.541-.591.474-1.211.93-1.841 1.346-.629.427-1.288.814-1.956 1.173-.669.349-1.357.678-2.054.969-.697.29-1.424.552-2.141.765-.727.223-1.472.417-2.209.562-.745.145-1.501.262-2.257.339-.754.077-1.529.116-2.285.116z" fill="#212121"/></g><g><path d="m1145.675 1191.4h-243.35c-38.46 0-69.75-31.289-69.75-69.75v-3.1c0-38.46 31.29-69.75 69.75-69.75h243.35c38.461 0 69.75 31.29 69.75 69.75v3.1c0 38.46-31.29 69.75-69.75 69.75zm-243.35-96.1c-12.82 0-23.25 10.43-23.25 23.25v3.1c0 12.82 10.43 23.25 23.25 23.25h243.35c12.82 0 23.25-10.43 23.25-23.25v-3.1c0-12.82-10.43-23.25-23.25-23.25z" fill="#212121"/></g><g><path d="m1312.3 1768h-576.6c-12.841 0-23.25-10.409-23.25-23.25v-144.15c0-12.841 10.409-23.25 23.25-23.25h576.6c12.841 0 23.25 10.409 23.25 23.25v144.15c0 12.841-10.41 23.25-23.25 23.25zm-553.35-46.5h530.1v-97.65h-530.1z" fill="#212121"/></g><g><path d="m1432.425 1768c-12.841 0-23.25-10.409-23.25-23.25v-96.1c0-12.841 10.409-23.25 23.25-23.25s23.25 10.409 23.25 23.25v96.1c0 12.841-10.41 23.25-23.25 23.25z" fill="#212121"/></g><g><path d="m615.575 1768c-12.841 0-23.25-10.409-23.25-23.25v-96.1c0-12.841 10.409-23.25 23.25-23.25s23.25 10.409 23.25 23.25v96.1c0 12.841-10.409 23.25-23.25 23.25z" fill="#212121"/></g></g></g><g id="Layer_1"/></svg>