<?xml version="1.0" encoding="UTF-8"?>
<svg id="Layer_1" data-name="Layer 1" xmlns="http://www.w3.org/2000/svg" viewBox="0 0 592.67 689.67">
  <defs>
    <style>
      .cls-1 {
        fill: #fbcc34;
      }
    </style>
  </defs>
  <path class="cls-1" d="M508.22,327.71c2.19-9.56.26-13.34-8.51-13.29-3.27.02-6.06-4.39-10.76-8.11-.49.11-2.7.57-5.62,1.19.57-4.4,1.03-7.87,1.5-11.29l15.5-4.45c.03,1.46.48,2.64.04,3.59-5.13,11.15,7.21,15.79,7.21,15.79l-54.33-189.49s-18.7-2.61-29.41.88c3.81-4.32,5.14-7.24,6.91-7.61,6.69-1.39,13.09-1.4,19.52-.03l-26.24-91.5-50.56,14.5c.08,14.28-.22,28.54-.73,42.86l24.14-6.92,3.86,13.45c3.18-3.53,5.93-6.78,8.94-10.34.73,7.32-6.88,13.89-6.88,13.89.11.32,45.89,160.19,46.03,160.46.19,2.75,3.73.08,3.58,3.06-.77.9-1.69,1.23-2.54.63l75.59,263.63-89.02,25.53c.5,1.61.87,3.25,1,4.91.18,9.76.57,19.41,1.08,29.01,2.89-10.86,16.3-1.06,21.84-10.14,3.46-4.3,6.93-3.03,10.64-.71-10.57,7.98-13.15,9.93-21.86,10.94-.1.3-.32.64-.67,1.03-.46-.26-.78-.54-.95-.86-2.44.24-5.34.43-8.94.68.11,2.03.22,4.06.34,6.08,5.15-1.59,8.3-2.68,8.27-2.96.55.39,1.42,1.19,1.42,1.19l127.58-36.58-64.32-224.32c-1.62,1.74-2.52,3.4-3.65,5.29ZM470.55,188.92c.86,3.55-.35,6.77-3.1,8.97-1.89-3.07-1-5.76,3.1-8.97ZM439.33,548.86c-.28.08-.55.17-.83.25l-1.05-3.6c2.15.8,1.69,2.2,1.87,3.35ZM501.47,564.89c.06-1.2.12-2.34.18-3.55q1.4,1.38-.18,3.55ZM535.67,547.41c-.14.36-.38.66-.65,1.12-2.48.04-4.98-3.35-2.23-5.51,1.07,1.32,1.94,2.41,3.03,3.75.02-.12-.01.29-.15.64ZM471.46,293.8l3.42-.99q-1.29,1.83-3.42.99ZM465.89,255.63c-.13,1.37-.25,2.61-.37,3.85q-1.9-3.17.37-3.85ZM545.84,532.58c.66,1.97,1.21,3.6,2.01,5.99-4.34-1.94-4.44-2.3-2.01-5.99ZM446,197.55c2.57-1.75,3.42,1.2,5.54,1.26q-1.74.87-5.54-1.26ZM527.61,439.18c-.26.07-.52.13-.78.2-.51-1.45-1.01-2.89-1.61-4.59,2.16,1.32,2.19,1.31,2.39,4.4ZM523.72,434.42c-1.61-3.19-.88-5.47,3.05-9.06,1.26,3.25-.12,7.06-3.05,9.06ZM561.23,530.03c-1.78-1.31-2.13-1.86-1.97-4.56,1.8.85,4.32,3.76,1.97,4.56ZM551,492.98c-1.12-1.22-1.46-2.25-.66-3.85,1.08,1.36,1.7,2.35.66,3.85ZM541.84,448.4l2.53-.73q-.4,1.91-2.53.73Z"/>
  <path class="cls-1" d="M353.57,485.37s0-.02,0-.04c-.02.02-.01.03,0,.04Z"/>
  <path class="cls-1" d="M323.86,383.2s.04-.08.07-.13c-.05.05-.09.1-.07.13Z"/>
  <path class="cls-1" d="M198.87,130.61c-8.43-11.82-17.01-23.57-25.71-35.28l-42.87,12.29c1.26,3.53,1.1,7.15-.04,10.61.21-3.14-.72-6.04-1.73-9.06l-72.33,20.74c6.98,11.7,16.24,22.86,22.08,35.28l120.6-34.58ZM127.61,124.85c.2-1.47,1.52-2.69,2.42-4.17,1.41,2.73,1.38,3.39-.54,13.56-3.35-1.86-1.7-6.27-1.89-9.39ZM125.56,141.51q.69,3.8-2.26,3.93c.87-1.51,1.56-2.72,2.26-3.93ZM109.68,141.13c1.87.52,2.32,2.14,2.22,4.56-1.53-1.16-2.63-2-4.18-3.17.82-.62,1.48-1.52,1.95-1.39ZM95.12,122.52q1,2.31-1.84,3.39c.87-1.61,1.3-2.41,1.84-3.39ZM72.26,138.9l-1.2-4.13c1.93.87,2.4,2,1.2,4.13Z"/>
  <path class="cls-1" d="M53.73,172.23l24.55-7.04c-5.84-12.43-15.1-23.58-22.08-35.28l-53.86,15.44,4.14,14.45c2.72-1.3,3.68-3.59,6.37-2.58-.17.8-.14,2.16-.55,2.32-1.52.6-5.42,1.65-5.42,1.65l8.64,30.13,2.3-.13c-.47.35-1,1.02-1,1.02l12.35,43.08s-.02.09.1.1c-.04.27-.08.53.13.71l13.83,48.24c.07.02.14.04.21.06l23.55-6.75s-7.39,7.85-9.98,10.69c-4.63-1.32-9.02-2.58-13.58-3.94l-.18.05,47.32,165.05c1.84.14,1.89,1.75,3.72,3.39-.31.6-.71,1.39-1.34,2.62.11-.12.31-.26.31-.26l29.42,102.6s-.06-.01-.08-.03c0,.2,0,.39.22.52l1.32,4.6,3.01-.87c-.34-1.67-.68-3.36-1.12-5.58,1.79-1.04,7.17-2.71,5.38,1.25-3.19,2.7.12,11.06-5.59,11.03,0,0,0,0,0,0l28.94,99.82,21.14-6.13c.89-1.14,1.41-2.55.66-4.78.27.05.54.1.81.16l1.13,3.95,36.77-10.54c.96-14.83,3.67-29.68,3.73-44.76l-37.66,10.8L53.73,172.23ZM107.17,500.08c-.49-.03-.98-.97-1.47-1.49,1.46-1.01,1.97-1.99,3.29-3.6.53.3,1.28.72,1.88,1.06-.37,2.9-1.57,4.17-3.7,4.03ZM52.84,293.08c1.47.98,2.25,1.51,3.24,2.17-1.91,1.47-2.9,1.26-3.24-2.17ZM126.85,498.4c1.53,2.4.88,3.51-.43,4.66-1.66-1.84-.47-2.89.43-4.66ZM121.18,493.71c1.94.52,2.03,3.96,2.21,6.38-1.14-1.17-1.94-2-2.74-2.83.18-1.22.36-2.39.53-3.56ZM171.88,659.53c-.38.84-.77,1.68-1.19,2.62-4.28-3.88-4.89-7.31,1.92-5.04.14-.26.29-.53.45-.81,1.31,2.29.75,2.93-1.18,3.24ZM102.75,412.15l-2.36-8.13c2.1,2.74,2.38,3.66,2.36,8.13ZM156.26,594.82c-.37-1.1-.74-2.2-1.1-3.31.34-.1.68-.2,1.02-.29l.96,3.31c-.29.1-.58.19-.87.29ZM42.82,246.25c-.14-.36-.27-.72-.41-1.08l4.53-1.31c-.99,2.55-2.72,2.05-4.12,2.39ZM56.86,228.75c-2.84,2.07-9.29-8.54-7.06-11.05,1.1,5.3,8.9,5.58,7.06,11.05ZM27.5,154.77c-5.44-5.67-16.96-.03-19.6-9.05,8.46-1.21,16.21-2.32,26.62-3.8-2.93,5.36-4.57,8.37-7.02,12.85ZM68.73,241.13c-2.68-1.14-3.65-2.64-4.25-4.81,0-.01,0-.03-.01-.04-1.55,2.24-2.13-.8-.31-1.02-.72-2.16-1.73-4.27-2.65-6.6,1.2.14,2.28.27,3.64.43-.33,1.83-.03,3.17,1.08,4.66.15.06.3.14.48.24-.07.04-.14.07-.22.11,1.33,1.56,1.43,4.22,2.25,7.04ZM50.53,164.74c.27-.6.55-1.2.95-2.09.79.61,1.31,1.02,1.84,1.42-.84,1.28-1.46,1.88-2.79.66Z"/>
  <path class="cls-1" d="M350.33,568.13c3.01,10.03-10.1,14.43-17.79,18.93.75,1.95,2.08,3.66,3.13,5.5-2.38,2.63-3.97-3.05-5.16-4.56-1.82.82-3.69,1.6-5.65,2.31-1.99-7.93,6.72-15.77,6.72-15.77l-135.01,38.71c-.16,8.35.84,16.84,1.83,25.15,0,0,0,0,0,0,0,0,0,0,0,0,.44,3.68.87,7.34,1.2,10.93.23,2.19.44,4.37.65,6.55l166.5-47.74s-.54-4.85,2.39-7.37c-.1,1.81-.44,4.73-.44,4.73l148.65-42.62c-6.32-12.47-12.68-24.89-19.27-37.13l-147.75,42.36ZM311.77,591.8l1.45,5c-1.97-1.22-2.34-2.92-1.45-5ZM211.59,630.6l-.88-3.02q2.82,1.37.88,3.02ZM221.15,640.23c.78-1.22,1.36-2.14,2-3.13,1.63,2.99,1.59,3.06-2,3.13ZM216.08,626.55c.63-.83,1.26-1.66,2-2.63,1.38,1.27,2.41,2.22,3.51,3.24-1.88,2.68-3.52-1.36-5.51-.61ZM240.27,641.12c-1.24-.83-1.93-1.28-2.76-1.83.37-.46.53-.87.79-.94,1.63-.49,2.1.36,1.97,2.78ZM234.83,634.85q2-1.06,2.62,2.09c-1.24-.99-1.87-1.49-2.62-2.09ZM235.99,624.05c-4.57.59-8.44,5.38-11.8-1.51q2.12-1.09,4.87.37c.83-2.85,2.94-3.66,5.97-3.64.32,1.6.64,3.19.96,4.78ZM257.27,605s0,0-.01,0c0,0,0,0,0,0,0,0,.02,0,.02,0h-.02s0-.01,0-.02c-.63-.71-1.26-1.43-2.09-2.37,2.39-.45,2.45.78,2.09,2.37,0,0,0,0,.01.01ZM275.87,632.12s.03.08.04.13h0s-.06.03-.1.04c0-.03,0-.07-.01-.1,0,0,.02.01.05.03l-.05-.03s.05-.04.07-.06c-.41-1.38-1.34-2.73-.54-4.79,1.23,1.92,2.38,3.28.54,4.79ZM272.59,615.4c-1.71-.67-2.86-1.12-4.3-1.69.31-2.06.59-3.97.94-6.31,1.92,2.19,4.9,1.28,6.77,4.45-2.48-.06-3.94.71-3.4,3.55ZM287.14,608.13q-.3-3.48,3.28-3.14c-1.14,1.09-2.02,1.93-3.28,3.14ZM299.17,594.15q-1.76-1.53-.91-3.86c.3,1.29.61,2.57.91,3.86ZM317.64,608.34c-1-1.7-1.65-2.81-2.31-3.94-1.25.8-2.19,2.03-1.13,3.27,2.53,3.45.76,7.43-1.83,9.93-.11-.89-.58-2.06-.25-2.63,2.68-5.11-3.53-14.56,6.37-12.92-.28,2.08-.51,3.85-.84,6.29ZM334.52,597.47c.79-.92,1.4-1.63,2.11-2.47,4.75,2.49,1.3,6.37-2.11,2.47ZM434.71,566.12c4.69.06,5.61,3.55,7.78,6.68-3.93-.76-5.19-3.9-7.78-6.68Z"/>
  <path class="cls-1" d="M330.91,91.71l67.87-19.46c-.23-.45-.48-.89-.71-1.33-6.29-11.95-14.46-22.74-21.31-33.96-30.41,8.72-59.44,17.04-82.36,23.62-5.39,15.91-9.76,31.35-14.05,46.68l35.74-10.25s-5.34-5.48-8.17-7.97c5.38-7.94,12.91-1.94,19.73-4.08,2.49-2.56,5.42-5.57,9.06-9.32,1.55,2.23,3.57,4.05,3.11,4.66-2.87,3.85-8.91,11.42-8.91,11.42ZM327.26,61.72c-1.05-1.68-1.72-2.75-2.39-3.81,1.16.72,3.14.68,2.39,3.81ZM321.32,56.13c.98,2.35,1.69,4.03,2.62,6.26-3.38-.33-6.14-.61-8.89-.88-.07-.36-.14-.73-.21-1.09,1.32-.67,2.65-1.33,3.79-1.91-1.6-6.97,6.78-6.58,11.42-5.44-2.26,3.12-6.33,1.17-8.72,3.06ZM355.56,56.8c-1.06,1.63-2.23,1.85-4,1.13,1.13-1.52,2.24-1.91,4-1.13ZM353.05,73.59c1.2-.95,1.85.14,2.79,1.24-1.3,1.71-3.48.47-2.79-1.24Z"/>
  <path class="cls-1" d="M254.31,72.07s.48.6.74.74c-1.09.45-2.42-.26-2.42-.26l-108.32,31.06c12.5,11.1,25.86,21.28,39.27,31.39l104.74-30.03c4.28-15.33,8.66-30.77,14.05-46.68-28.88,8.28-48.06,13.78-48.06,13.78ZM182.9,123.3c2.03-2.17,2.99-.24,4.1.61-1.13-.17-2.26-.34-4.1-.61ZM211.63,102.86c-1.68-1.31-2.97-2.31-4.74-3.69,1.57-2.33,2.9-4.3,4.4-6.52,1.2.84,2.32,1.63,3.8,2.67-1.19,2.59-2.24,4.88-3.46,7.54ZM240.86,97.28c-2.23-1.33-5.23,1.13-7.63-2.6,1.51-.07,2.65-.12,4.11-.19l-1.45-5c-1.56.35-2.96.67-4.45,1.01-1.46-1.21-2.08-2.81-2.16-4.63-.13-1.39,1.26-2.33,2.29-1.37,2.19,2.75,5.57,1.69,8.28,3.4,2.86.9,1.67,3.71,3.66,5.97-.95,1.22-1.72,2.21-2.65,3.41ZM276.55,83.88q1.15-1.76,3.38-1.44c-.63,2.41-1.8,2.16-3.38,1.44ZM287.28,88.5c.69-2.14,1.76-2.53,3.51-1.07-.83,1.67-1.94,1.92-3.51,1.07Z"/>
  <path class="cls-1" d="M274.19,211.88l.03.11.18-.05c-.07-.02-.14-.04-.21-.06Z"/>
  <path class="cls-1" d="M197.71,570.13l-51.14-178.35c-.91.36-1.03.48-1.16.62-.04-.24-.08-.45-.11-.65-1.06.23-1.86.4-2.66.58,1.09-1.52,1.32-1.79,2.56-1.26-.04-.35-1.07-.55-1.07-.55l-27.91-97.36s.82-.23.82-.23c-2.61-2.09-5-4-7.26-5.81,2.07-3.38,2.25-2.26,5.12-2.21l-20.95-73.06,33.99-9.74c-1.64-5.43-3.27-10.86-4.87-16.29l-49.18,14.1,3.79,13.23c.6-.21.62-.24.65-.28.26.14.52.27.78.41-.68,1.26,45.58,158.99,45.6,160.27,0,0,1.24.61,1.98,2.87-.42-.23-1.35-.68-1.35-.68l62.33,214.95,35.77-10.37c-1.08-5.55-2.18-11.09-3.29-16.62l-22.44,6.43ZM142.44,385.72c-.67,1.06-.37,3.23-3.5,2.36,1.87-1.15,1.97-1.54,3.5-2.36ZM99.98,252.33c1.04,1.1,1.28,1.18.51,2.11.42-.01.97.17,1.68.6-.4.78-.77,1.52-1.42,2.81-.93-1.58-1.61-1.74-1.15-2.75-.24-.14-.61-.48-.88-.66.37-.61.73-1.22,1.27-2.11ZM178.16,537.85c-.3.06-.61.12-.91.17-.23-1.12-.46-2.23-.69-3.35,1.73.79,2.1,1.87,1.61,3.18ZM192.53,576.15c-1.22-1.28-2.32-2.32-3.66-3.61.31-.59.7-1.36,1.08-2.1,2.76.44,4.6,3.43,2.57,5.72ZM190.01,559.65c-1.17-.3-2.23-.58-3.46-.9,1.53-2,3.42-2.08,5.9-1.84-1.01,1.14-1.74,1.96-2.44,2.74Z"/>
  <path class="cls-1" d="M387.3,109.34l-10.41,2.99c.37,3.22,1.01,6.03,1.31,8.98-1.37-.93-2.69-1.83-3.96-2.69-.34.29-.66.57-1,.85-.28-.87-.45-1.44-.42-1.82-1.34-.91-3.86-3.04-3.86-3.04l-17.08,4.9s.54,3.12-.17,5.08c-1.71-.99-5.41-2.44-5.41-2.44l-164.77,47.24s-.26.7-.44,1c-.17-.2-.56-.72-.56-.72-1.28.59-35.59,9.42-41.3,12.76.12-.04.25-.05.4,0l-.71.2c-.17.17-.32.41-.47.64-.08-.17.08-.38.44-.64l-24,6.88c1.18,5.21,2.34,10.43,3.48,15.65l102.12-29.28s-.18-4.43,0-5.61c.77.25,1.77.57,2.83.91.02.59.06,1.79.06,1.79l152.97-43.86,11.02,38.45c2.78-.39,5.03,1.63,5.62,5.67l-2.56.73c.98,1.76,2.11,3.51,3.72,4.91.05,0,.1-.02.15-.02,0,.03,0,.06,0,.09,1.63-.22,1.52,1.07,1.85,2.45-1.73-.23-1.96-1.21-1.85-2.45-.02,0-.03,0-.05,0-.03-.03-.06-.06-.09-.08-1.52.19-.99,1.99-1.5,3.25-.78-1.14-3.03-3.07-3.03-3.07l2.47,8.62s1.1-1.53,1.36-2.43c1.46,2.76,3.38,2.92,6.17,2.18-.75,1.81-1.2,2.88-1.83,4.4-1.71-.99-4.23-2.65-4.23-2.65l5.52,19.26s1.29-.25,1.98.68c.05,0,.07,0,.13,0,8.55-12.05,11.75,17.61.8,8.66-.04.03-.07.06-.11.09l.02-.06s-.02.03-.04-.09c-.1,0-.13-.06-.13-.06l41.53,144.86s2.07-1.33,2.99-1.97c-.23,2.38-1.61,3.15-1.61,3.15.64,2.68,4.87,15.95,5.09,18.5-.28-.37-1.09-.92-1.09-.92l31.1,107.25-272.67,79.07c3.35,4.88,7.58,9.13,12.27,11.73.74.32,1.48.62,2.22.91l108.06-30.98s-2.47-2.49-3.53-3.16q6.9-7.12,21.73-7.33c-1.74,1.99-3.27,3.73-4.63,5.56l155.04-44.45-15.12-52.72c-3.46,1.33-8.3.73-8.9-6.79,2.99,1.13,8.4,1.41,8.4,1.41l-2.5-8.73s-1.57,1.76-2.22,2.72c-.42-.8-.97-1.76-.94-1.78.86-.6,1.4-1.7,2.68-2.62l-92.33-322.03ZM174.63,186.87c-.44-.1-.88-.2-1.32-.3.11-.91.23-1.82.34-2.73,2.12,0,.94,1.68.98,3.03ZM189.44,173.93l-1.22-4.22c1.66.68,2.9,1.18,4.24,1.73-.03,2.26-1.27,2.56-3.02,2.5ZM295.01,151.4l-5.63,1.63c-1.48-1.31-3.05-2.71-4.74-4.2,1.47-1.98.92-1.24,2.4-3.22,2.54,1.81,3.47,6.81,8.26,4.64-.09.38-.19.76-.28,1.14ZM295.35,147.2c-1.84-1.17-3.02-1.93-4.6-2.93,1.02-1.13,1.74-2.14,2.65-2.9,3.6-2.07,2.34,3.45,1.95,5.83ZM324.73,137.94c1.02-1.35,1.29-1.71,1.56-2.07.4.39.81.77,1.21,1.16-.75,1.22-1.17,1.01-2.77.9ZM352.09,133.45c-.08-.34-.16-.67-.25-1.01,1.03-.23,2.05-.46,3.08-.69-.57,1.9-1.59,2.17-2.83,1.69ZM351.53,130.01c-1.23-1.99.47-2.29,1.28-3.33,1.04.72,1.84,1.27,3.01,2.08l-4.29,1.24ZM385.86,144.21l1.13,3.9c-1.76-.8-2.06-1.89-1.13-3.9ZM310.07,545.58c.15-4.1,4.23-2.71,4.77-5.5,1.7.55,3.1,1,4.24,1.37-2.91,1.33-5.79,2.66-9,4.13ZM386.11,528.19c9.5-7.9,14.48-16.44,27.13-14.2-7.59,5-13.27,12.85-27.13,14.2ZM461.53,413.1c1.31,1.04,2.39,1.91,3.84,3.07-2.16,3.05-4,.98-3.84-3.07ZM457.71,372.57c-3.01-1.42-3-3.44-2.16-5.98,1.82,1.6,1.8,3.63,2.16,5.98ZM441.33,321.01c1.07-1.91,1.86-3.31,3.04-5.4.3,3.97.09,4.32-3.04,5.4Z"/>
  <path class="cls-1" d="M301.51,249.66c4.56,2.58,9.75,3.03,15.58,1.34,5.65-1.64,9.68-4.71,12.1-9.22,2.41-4.5,2.74-9.76,1-15.76-1.64-5.66-4.67-9.7-9.09-12.13-4.42-2.43-9.46-2.83-15.12-1.19-5.83,1.69-10,4.76-12.52,9.2-2.52,4.45-2.96,9.5-1.32,15.15,1.69,5.83,4.82,10.03,9.37,12.61ZM315.83,215.77c.41.33.67.88,1.5,2.07-1.32-.4-1.88-.44-2.3-.75-.32-.23-.44-.8-.86-1.66.87.16,1.36.1,1.66.34Z"/>
  <path class="cls-1" d="M344.44,237.21c2.03,1.15,4.18,1.86,6.43,2.17-1.21-.36-1.16-1.63-1-2.98.68.88,1.36,1.76,2.36,3.05-.24.03-.46.03-.66.02,2.59.25,5.31-.03,8.18-.86,5.82-1.69,9.94-4.79,12.35-9.29,2.41-4.5,2.74-9.76,1-15.76-1.64-5.66-4.72-9.68-9.22-12.1-4.51-2.41-9.59-2.79-15.24-1.15-5.66,1.64-9.75,4.69-12.26,9.13-2.52,4.45-2.96,9.5-1.32,15.15,1.69,5.83,4.81,10.03,9.37,12.61ZM357.62,219.08c-.04.34,0,.71-.1.75-.92.4-1.97,1.25-2.71-1.31,1.19.24,2,.4,2.81.56Z"/>
  <path class="cls-1" d="M395.09,295.11c-1.49-.41-1.76-1.85-1.25-4.32l-9.06-31.23c-2.94,2.18-5.9,4.37-9,6.66-.27-.28-.53-.55-.8-.83l-4.72,4.58c2.55.18,5.08.36,7.68.54.7,8.43-14.43,4.25-14.71,11.93,2.1,6.36,11.69-5.04,12.9,3.14-2.31.06-5.54-.69-6.77.32-4.47,3.7-9.49,6.54-14.72,9.07l10.82,37.3c1.59,5.49,1.59,9.67.01,12.54-1.58,2.88-5.12,5.11-10.6,6.7l-11.31,3.28-13.88,4.03-11.57,3.35c-5.49,1.59-9.61,1.63-12.37.1-2.76-1.52-4.96-5.11-6.61-10.76l-6.04-20.82c-3.98-13.71-11.09-23.82-21.33-30.32-11.62-7.4-25.23-8.85-40.83-4.32-15.26,4.42-26.15,12.98-32.69,25.64-7.27,14-8.13,30.6-2.56,49.79,1.98,6.82,4.58,13.05,7.81,18.71.12.08.24.16.36.24.57.34.86,1.29,1.14,2.29.45.72.9,1.43,1.37,2.13-11.43,4.8-19.71,12.13-24.84,21.97-5.99,11.4-6.86,24.38-2.64,38.95l19.68,67.87,31.53-30.6-13.42-46.27c-1.59-5.49-1.6-9.67-.01-12.54,1.58-2.87,5.11-5.11,10.6-6.7l.32-.09-.64-2.2c.36-.09.73-.18,1.09-.28.18.73.36,1.46.53,2.19l35.46-10.28c13.54-3.93,23.76-9.68,30.67-17.25.77.23,1.54.43,2.32.61-.65-1.18-1.3-2.36-1.86-3.58-.69-1.5-1.19-3.09-1.99-5.22,3.99,2.28,5.74,5.96,4.88,9.04,8.57,1.87,17.62,1.43,27.17-1.34l14.91-4.32,12.13-3.52c.28-.32.45-.77.42-1.44.83.24,1.56.45,2.28.66l13.96-4.05c13.88-4.03,23.96-11.22,30.25-21.59,1.34-2.19,2.48-4.46,3.41-6.79-.58-.2-1.24-.43-2.13-.74,1.27-1.12,2.09-1.36,2.73-.87,3.58-9.96,3.59-21.11.01-33.46l-8.09-27.91ZM182.53,437.94c-.36-1.03-.67-1.94-1.23-3.55q3.08,1.78,1.23,3.55ZM185.38,446.36c-1.51-.46-3.47.13-3.37-3.04,2.29-.42,3.29.53,3.37,3.04ZM179,436.83c1.02,1.12,1.76,1.94,3.23,3.56-2.06-.18-3.25-.29-4.99-.44.7-1.24,1.15-2.03,1.77-3.12ZM184.3,474.25c.15-.39.29-.78.33-.89,1.1.68,2.13,1.32,3.32,2.06-1.07,2.75-2.21-2.56-3.65-1.17ZM185.35,452.3c.57-.97,1.01-1.73,1.56-2.67q.97,2.6-1.56,2.67ZM195,505.58c-.2.13-.74-.36-1.33-.67.34-.59.56-1.31.78-1.3.48.02.97.42,1.46.67-.29.45-.51,1.04-.91,1.3ZM212.07,458.52c0,1.41.08,2.49-.08,3.52-.03.24-1.11.56-1.29.37-.7-.76-1.24-1.7-2.06-2.9l3.43-.99ZM211.11,498.45c-1.51-2.67-.45-3.17.74-3.58.31.26.63.52.94.77-.48.81-.97,1.62-1.68,2.81ZM207.94,491.98c-.81.6-4.35-1.59-6.55-2.46,6.44-4.21,11.48-7.51,17.58-11.49.68,7.07-6.09,10.31-11.03,13.95ZM213.61,403.96c-1.15-1.43-1.92-2.39-2.68-3.34,1.22.41,2.86.53,2.68,3.34ZM202.56,327.47c-.99-.64-2.24-1.29-1.74-2.76.29-.86,1.16-1.94,1.88-2.01.92-.08,2.18.52,2.87,1.29.62.69.67,2,.99,3.11-1.44,1.53-2.7,1.22-4,.37ZM215.54,385.96c-.38-.25-.95-.43-1.09-.78-.14-.36.15-.89.48-2.39.64.85,1.18,1.27,1.21,1.69.03.49-.38.99-.6,1.48ZM214.2,354.18c-1.09-.14-2.16-.61-3.84-1.14.93-1.11,1.27-1.89,1.81-2.09,1.16-.44,2.95.7,2.94,1.82,0,.52-.62,1.45-.91,1.41ZM255.87,331.45c-1.28.44-2.24.77-3.43,1.19q.83-2.52,3.43-1.19ZM242.88,295.63c1.78.46,1.83,1.8,2.08,2.98.03,0,.06.01.09.02,0,0,0,0,0,0,.01.03.03.06.04.09-.04.01-.07.02-.11.04-.01-.05-.02-.09-.03-.14-1.46-.2-2-1.17-2.08-2.98ZM240.75,313.43c1.68.87,1.87,2.28,1.64,3.63-.07.45-1.05.66-2.12,1.26.21-2.11.33-3.36.48-4.89ZM225.23,344.74c-.16.16-.77.08-.95-.12-.93-1.06-.58-1.92.57-2.82,1.01,1.09,1.27,2.04.38,2.94ZM250.25,398.9c1.83-.37,2.54.24,4.21,3.91-1.78-1.65-2.96-2.74-4.21-3.91ZM252.75,391.19c1.23.83,1.96,1.32,2.92,1.96-2.1,1.63-2.53.54-2.92-1.96ZM255.14,380.44c-10.46,3.03-18.14-3.94-23.06-20.9-4.12-14.2-2.17-23.28,5.82-27.28.2-.14.41-.29.67-.47,0,.06-.01.11-.02.17.8-.36,1.63-.69,2.54-.95,1.28-.37,2.48-.57,3.6-.61.15-.68.29-1.35.27-2.02.25,0,.5,0,.75,0,.03.67.06,1.35.09,2.05,4.63.31,7.88,3.65,9.73,10.05l7.75,26.74c1.94,6.68-.78,11.09-8.15,13.23ZM267.07,403.32l-.91-3.15c.15-.08.29-.15.44-.23l.94,3.23c-.15.05-.31.1-.46.15ZM300.44,397.33c.38-1.53.73-2.93,1.18-4.72q2.18,3.89-1.18,4.72ZM324.37,383.25c-.06.02-.57-.66-.52-.9.3-1.51,1.2-1.69,2.82-.19-.76.38-1.51.78-2.3,1.09ZM329.69,369.16l-.93-3.22c1.42-.69,2.78-1.4,3.41.76.66,2.26-1.01,2.18-2.48,2.46ZM352.53,378.37c1.16-2.88,3.04-2.71,5.01-2.32-1.49.69-2.98,1.38-5.01,2.32ZM359.01,366.05q-3.12-2.23-3.85-6.13c4.39,2.2,4.48,2.35,3.85,6.13ZM363.27,357.85c.24-.22.48-.43.73-.65,1.36.28,2.47.71,1.02,3.11-.71-1-1.23-1.73-1.75-2.46ZM367.13,377.92c1.1-.51,1.73-.81,2.65-1.24q-.62,1.64-2.65,1.24ZM386.27,351.5q.24-2.9,2.87-1.1c-.89.34-1.79.69-2.87,1.1ZM395.59,332.42c-1.02-.71-1.79-1.07-2.29-1.69-.18-.22.3-1.06.47-1.62.7.38,1.49.65,2.05,1.21.21.2-.1,1.06-.24,2.11Z"/>
  <polygon class="cls-1" points="565.57 263.72 565.57 263.72 565.57 263.71 565.57 263.72"/>
</svg>