<?xml version="1.0" encoding="UTF-8"?>
<svg id="Layer_1" data-name="Layer 1" xmlns="http://www.w3.org/2000/svg" viewBox="0 0 615.15 686.82">
  <path d="M494.84,446.72c7.19-6.67,7.72-10.88.45-15.77-2.72-1.83-2.54-7.04-4.32-12.76-.47-.19-2.56-1.05-5.31-2.18,2.95-3.32,5.28-5.92,7.6-8.49l15.32,5.05c-.8,1.22-1.09,2.45-1.99,2.99-10.52,6.33-2.93,17.11-2.93,17.11l61.78-187.19s-13.98-12.68-24.8-15.83c5.58-1.43,8.32-3.09,10-2.4,6.31,2.62,11.61,6.21,16.15,10.97l29.83-90.39-49.95-16.48c-7.97,11.85-16.26,23.47-24.73,35.01l23.85,7.87-4.38,13.28c4.62-1.13,8.72-2.27,13.21-3.52-3.52,6.46-13.51,7.61-13.51,7.61-.09.32-52.26,158.23-52.3,158.53-1.39,2.38,3.04,2.16,1.24,4.55-1.14.31-2.09.06-2.46-.91l-85.95,260.44-87.95-29.02c-.5,1.62-1.11,3.17-1.94,4.63-5.34,8.17-10.46,16.37-15.44,24.58,8.5-7.34,14.07,8.3,23.75,3.91,5.28-1.61,7.43,1.39,9.2,5.4-13.23.65-16.46.8-24.23-3.26-.26.19-.62.35-1.13.47-.24-.47-.34-.88-.31-1.24-2.15-1.18-4.66-2.65-7.77-4.48-1.05,1.74-2.1,3.48-3.14,5.21,5.15,1.59,8.36,2.46,8.5,2.21.23.63.5,1.78.5,1.78l126.03,41.6,73.14-221.6c-2.32.52-3.99,1.39-5.99,2.32ZM541.84,310.81c-1.29,3.42-4.1,5.4-7.61,5.67.17-3.6,2.42-5.32,7.61-5.67ZM313.4,590.71c-.27-.09-.55-.17-.82-.26l1.17-3.57c1.33,1.87.16,2.77-.34,3.83ZM355.73,638.94c.72-.95,1.41-1.86,2.15-2.83q.38,1.93-2.15,2.83ZM393.83,643.75c-.31.22-.68.34-1.16.56-2.07-1.36-2.23-5.57,1.26-5.81.14,1.69.25,3.09.39,4.8.09-.08-.17.23-.49.45ZM483.55,398.01l3.38,1.1q-2.09.79-3.38-1.1ZM500.44,363.32c-.88,1.06-1.68,2.01-2.48,2.97q.21-3.69,2.48-2.97ZM410.59,637.22c-.56,2.01-1.03,3.66-1.71,6.08-2.49-4.04-2.37-4.41,1.71-6.08ZM516.7,304.12c3.11,0,2.15,2.92,3.87,4.16q-1.93-.26-3.87-4.16ZM448.1,549.76c-.25-.09-.51-.19-.76-.28.39-1.48.79-2.96,1.25-4.7,1.04,2.3,1.07,2.31-.5,4.98ZM447.57,543.64c.46-3.54,2.35-5.02,7.63-5.77-.79,3.39-4.08,5.77-7.63,5.77ZM424.75,643.77c-.73-2.09-.71-2.74.94-4.88,1.01,1.72,1.45,5.54-.94,4.88ZM437.15,607.4c-.24-1.64.06-2.68,1.62-3.56.13,1.73.08,2.9-1.62,3.56ZM454.68,565.39l2.51.82q-1.41,1.35-2.51-.82Z"/>
  <path d="M278.27,489.95s.01-.02.02-.03c-.02,0-.03.01-.02.03Z"/>
  <path d="M311.23,388.78s.08-.04.13-.07c-.07.02-.13.04-.13.07Z"/>
  <path d="M350.14,109.67c-.31-14.51-.79-29.05-1.39-43.63l-42.35-13.98c-.95,3.62-3.12,6.52-6,8.74,1.94-2.47,2.81-5.4,3.67-8.46l-71.45-23.58c-.82,13.59.55,28.03-1.62,41.59l119.14,39.32ZM294.49,64.79c.99-1.11,2.77-1.37,4.35-2.08-.37,3.05-.77,3.57-8.08,10.9-1.72-3.43,2.12-6.14,3.73-8.82ZM283.41,77.4q-1.57,3.53-4.07,1.97c1.57-.76,2.82-1.37,4.07-1.97ZM270.5,68.15c1.25,1.48.71,3.08-.73,5.02-.61-1.83-1.05-3.14-1.67-4.97,1.03-.05,2.08-.42,2.4-.05ZM268.95,44.57q-.47,2.47-3.43,1.77c1.63-.84,2.43-1.25,3.43-1.77ZM240.83,45.23l1.33-4.08c1.1,1.8.86,3-1.33,4.08Z"/>
  <path d="M206.75,62.35l24.25,8c2.17-13.56.8-28,1.62-41.59l-53.21-17.56-4.71,14.27c2.99.46,5.06-.89,6.72,1.46-.59.57-1.33,1.7-1.76,1.61-1.59-.36-5.41-1.69-5.41-1.69l-9.82,29.76,1.97,1.18c-.58.03-1.4.28-1.4.28l-14.05,42.56s-.07.06.03.13c-.19.2-.36.39-.29.67l-15.73,47.65c.05.06.09.11.14.17l23.27,7.68s-10.52,2.33-14.26,3.22c-3.08-3.7-6-7.21-9-10.9l-.18-.06-53.81,163.05c1.44,1.15.57,2.51,1.16,4.9-.59.32-1.37.75-2.59,1.41.16-.04.41-.04.41-.04l-33.45,101.35s-.04-.04-.05-.07c-.11.16-.22.33-.11.56l-1.5,4.54,2.98.97c.66-1.57,1.33-3.16,2.21-5.24,2.06.14,7.45,1.8,3.75,4.07-4.16.43-6.12,9.21-10.84,5.97,0,0,0,0,0,0l-32.28,98.79,20.92,6.83c1.38-.44,2.6-1.31,3.24-3.58.19.19.39.39.58.58l-1.29,3.91,36.32,11.99c9.14-11.71,19.74-22.47,28.29-34.89l-37.2-12.28L206.75,62.35ZM66.34,363.38c-.39-.3-.26-1.35-.37-2.06,1.77,0,2.75-.53,4.74-1.12.27.55.65,1.31.96,1.93-1.94,2.18-3.64,2.56-5.33,1.25ZM137.98,161.73c.66,1.64,1.01,2.51,1.46,3.62-2.4.14-3.1-.59-1.46-3.62ZM83.55,373.08c-.08,2.85-1.25,3.4-2.98,3.61-.33-2.45,1.24-2.66,2.98-3.61ZM81.51,366.01c1.31,1.52-.55,4.41-1.76,6.52-.28-1.61-.48-2.74-.68-3.88.84-.91,1.64-1.78,2.44-2.64ZM30.05,531.6c-.79.48-1.58.96-2.46,1.49-1.35-5.61.07-8.8,4.43-3.09.26-.13.53-.27.83-.42-.21,2.63-1.03,2.84-2.79,2.02ZM112.19,288.23l2.63-8.05c.19,3.45-.09,4.37-2.63,8.05ZM53.57,469.33c.32-1.12.63-2.24.95-3.35.34.11.67.22,1.01.33l-1.07,3.28c-.3-.08-.59-.17-.89-.25ZM156.06,117.38c.09-.37.18-.75.27-1.12l4.48,1.46c-2.25,1.55-3.4.16-4.75-.34ZM177.52,110.82c-3.52.11-2.87-12.29.38-13.11-2.08,5,4.21,9.62-.38,13.11ZM194.91,33.15c-1.3-7.75-14-9.57-11.1-18.51,7.67,3.76,14.7,7.21,24.14,11.84-5.44,2.78-8.5,4.35-13.04,6.67ZM180.35,127.74c-1.57-2.45-1.52-4.24-.81-6.37,0-.01,0-.03.01-.04-2.55.98-1.31-1.86.31-1.02.62-2.19.98-4.5,1.52-6.95.92.79,1.73,1.5,2.77,2.4-1.3,1.33-1.81,2.61-1.73,4.45.09.14.18.28.26.47-.08-.01-.16-.02-.24-.03.22,2.04-1.19,4.29-2.1,7.08ZM208.32,54.36c.56-.34,1.12-.68,1.96-1.19.31.96.51,1.58.72,2.21-1.41.58-2.26.73-2.68-1.02Z"/>
  <path d="M228.99,556.53c-3.16,9.98-16.47,6.24-25.36,5.63-.47,2.04-.34,4.2-.51,6.31-3.45.83-1.56-4.75-1.7-6.67-1.96-.35-3.95-.76-5.97-1.27,2.82-7.67,14.43-9.25,14.43-9.25l-133.38-44.02c-4.83,6.82-8.78,14.39-12.65,21.81,0,0,0,0,0,.01,0,0,0,0,0,0-1.71,3.29-3.41,6.55-5.16,9.71-1.04,1.94-2.1,3.86-3.15,5.78l164.49,54.29s2.28-4.31,6.13-4.75c-1.1,1.44-3.03,3.66-3.03,3.66l146.85,48.47c1.8-13.86,3.53-27.71,4.98-41.53l-145.96-48.17ZM183.8,554.38l-1.62,4.94c-.95-2.12-.29-3.73,1.62-4.94ZM79.16,530.04l.98-2.99q1.56,2.72-.98,2.99ZM81.64,543.39c1.33-.57,2.33-1,3.41-1.46-.33,3.38-.41,3.43-3.41,1.46ZM85.15,529.22c.99-.33,1.98-.66,3.13-1.05.42,1.82.74,3.2,1.08,4.65-3.06,1.16-2.14-3.11-4.21-3.6ZM96.94,554.89c-.56-1.38-.87-2.15-1.25-3.07.56-.17.92-.42,1.18-.34,1.62.52,1.53,1.48.07,3.4ZM95.98,546.64q2.25.25.99,3.2c-.47-1.52-.71-2.29-.99-3.2ZM103.01,538.37c-4.11-2.09-10-.31-8.9-7.89q2.37.29,3.82,3.05c2.29-1.89,4.49-1.37,6.98.35-.64,1.51-1.27,3-1.9,4.49ZM131.32,534.6s-.01,0-.02,0c0,0,0,0,0,0,0,0,.02.01.02.01h-.02s.01-.02.02-.03c-.12-.94-.24-1.89-.39-3.14,2.23.97,1.58,2.02.39,3.14,0,0,0,0,0,.02ZM131.43,567.49s-.03.08-.04.13h0s-.07-.02-.1-.02c.02-.03.03-.06.05-.09,0,0,.01.03.02.05l-.02-.05s.06,0,.09-.01c.44-1.37.43-3.01,2.24-4.26-.07,2.28.12,4.05-2.24,4.26ZM138.13,551.82c-1.04-1.52-1.73-2.54-2.6-3.82,1.41-1.53,2.72-2.95,4.33-4.69.35,2.89,3.33,3.82,3.08,7.49-2.01-1.45-3.66-1.63-4.81,1.02ZM154.25,554.01q1.71-3.04,4.48-.74c-1.55.26-2.75.46-4.48.74ZM172.06,549.23q-.6-2.26,1.42-3.71c-.47,1.24-.95,2.47-1.42,3.71ZM179.34,571.35c.13-1.96.22-3.25.31-4.56-1.49-.04-2.96.44-2.78,2.07.15,4.28-3.55,6.57-7.1,7.17.41-.8.68-2.03,1.27-2.32,5.09-2.71,5.28-14.02,12.54-7.1-1.4,1.56-2.59,2.9-4.24,4.73ZM199.41,571.88c1.17-.32,2.07-.56,3.14-.85,2.53,4.73-2.51,5.99-3.14.85ZM299.86,602.37c3.84,2.69,2.64,6.1,2.67,9.9-2.82-2.84-2.09-6.14-2.67-9.9Z"/>
  <path d="M481.17,151.86l67.04,22.13c.06-.5.1-1,.16-1.5,1.53-13.42.85-26.93,1.51-40.07-30.05-9.92-58.72-19.38-81.36-26.85-13.41,10.12-25.72,20.42-37.89,30.67l35.31,11.65s-1.33-7.54-2.26-11.19c8.92-3.53,11.76,5.67,18.6,7.74,3.5-.71,7.62-1.56,12.73-2.6.02,2.72.67,5.35-.05,5.6-4.54,1.57-13.79,4.42-13.79,4.42ZM495.03,125.02c.08-1.98.12-3.24.17-4.49.55,1.24,2.21,2.33-.17,4.49ZM493.27,117.05c-.51,2.49-.87,4.28-1.36,6.65-2.61-2.18-4.73-3.96-6.85-5.73.15-.34.29-.68.44-1.02,1.47.19,2.94.39,4.2.56,2.6-6.67,9.31-1.62,12.5,1.93-3.63,1.31-5.89-2.6-8.93-2.39ZM521.19,136.88c-1.8.75-2.89.27-3.94-1.31,1.79-.62,2.93-.32,3.94,1.31ZM509.66,149.34c1.53-.11,1.45,1.16,1.61,2.59-2.04.68-3.14-1.58-1.61-2.59Z"/>
  <path d="M428.92,92.49s.06.77.2,1.03c-1.15-.24-1.86-1.58-1.86-1.58l-107.01-35.32c4.08,16.21,9.39,32.15,14.78,48.05l103.47,34.15c12.17-10.26,24.48-20.55,37.89-30.67-28.53-9.42-47.48-15.67-47.48-15.67ZM341.05,94.63c2.89-.65,2.6,1.48,3.05,2.82-.84-.78-1.68-1.55-3.05-2.82ZM376.31,93.92c-.65-2.03-1.15-3.59-1.84-5.72,2.61-1.04,4.81-1.92,7.3-2.92.52,1.37,1,2.65,1.64,4.35-2.44,1.47-4.6,2.77-7.1,4.28ZM403.61,105.76c-1.09-2.36-4.96-2.01-4.84-6.45,1.29.79,2.26,1.39,3.5,2.16l1.62-4.95c-1.49-.58-2.83-1.11-4.25-1.67-.52-1.82-.14-3.5.82-5.04.68-1.23,2.36-1.22,2.67.16.26,3.5,3.66,4.53,4.93,7.47,1.86,2.35-.71,4.01-.34,7-1.47.47-2.66.86-4.11,1.32ZM440.64,114.78q1.95-.81,3.61.71c-1.88,1.64-2.71.77-3.61-.71ZM446.92,124.64c1.78-1.38,2.88-1.1,3.5,1.1-1.62.91-2.68.49-3.5-1.1Z"/>
  <path d="M366.63,219.24l-.04.11.18.06c-.05-.06-.09-.11-.14-.17Z"/>
  <path d="M101.73,472.25l58.15-176.19c-.96-.22-1.13-.18-1.31-.14.1-.23.19-.42.27-.6-1-.4-1.76-.71-2.52-1.02,1.76-.64,2.1-.74,2.83.4.17-.31-.58-1.06-.58-1.06l31.74-96.18s.81.27.81.27c-.98-3.2-1.88-6.13-2.73-8.89,3.62-1.63,3.13-.6,5.47,1.06l23.82-72.17,33.57,11.08c1.7-5.41,3.41-10.81,5.14-16.2l-48.58-16.03-4.31,13.07c.61.17.65.15.7.14.14.26.28.52.42.77-1.27.66-51.84,157.06-52.55,158.13,0,0,.68,1.21.02,3.49-.21-.43-.74-1.32-.74-1.32l-69.5,212.74,35.41,11.57c2.23-5.19,4.44-10.39,6.64-15.59l-22.16-7.31ZM159.88,288.74c-1.15.5-2.13,2.46-4.22-.02,2.19.1,2.5-.16,4.22.02ZM199.89,154.58c.24,1.49.39,1.7-.77,2.03.36.23.71.69,1.05,1.44-.77.42-1.49.82-2.76,1.52.12-1.82-.35-2.34.6-2.92-.12-.25-.24-.74-.36-1.04.65-.3,1.29-.59,2.24-1.02ZM103.75,434.57c-.28-.12-.57-.25-.85-.37.44-1.05.88-2.11,1.31-3.16.98,1.62.69,2.73-.46,3.53ZM94.06,474.32c-.29-1.74-.61-3.22-.99-5.05.59-.32,1.35-.73,2.08-1.13,2.03,1.92,1.87,5.43-1.09,6.17ZM101.26,459.26c-.79-.91-1.52-1.74-2.36-2.7,2.39-.79,4,.21,5.91,1.81-1.47.37-2.54.64-3.56.89Z"/>
  <path d="M517.85,198.17l-10.29-3.39c-1.51,2.87-2.56,5.55-3.97,8.16-.61-1.54-1.2-3.03-1.76-4.46-.45.05-.87.1-1.3.14.26-.88.44-1.45.67-1.74-.6-1.51-1.48-4.69-1.48-4.69l-16.87-5.57s-1.31,2.89-3,4.11c-.86-1.79-3.1-5.07-3.1-5.07l-162.78-53.72s-.61.43-.93.58c-.03-.26-.06-.91-.06-.91-1.39-.23-34.72-12.25-41.31-12.7.12.03.23.1.33.23l-.7-.23c-.24.04-.49.16-.75.27.03-.18.28-.27.72-.28l-23.71-7.82c-1.96,4.97-3.93,9.94-5.93,14.89l100.88,33.29s2.35-3.76,3.16-4.64c.49.64,1.14,1.47,1.82,2.35-.32.5-.96,1.52-.96,1.52l151.11,49.87-12.54,37.98c2.51,1.24,3.24,4.18,1.45,7.85l-2.53-.83c-.18,2.01-.23,4.09.31,6.15.04.02.09.04.13.07-.02.02-.04.05-.06.07,1.47.74.66,1.74.15,3.06-1.3-1.17-.94-2.1-.15-3.06-.02,0-.03-.02-.05-.03-.01-.04-.02-.08-.03-.12-1.36-.7-1.93,1.09-3.07,1.84,0-1.38-.77-4.24-.77-4.24l-2.81,8.52s1.77-.65,2.5-1.25c-.34,3.1,1.15,4.32,3.87,5.27-1.64,1.07-2.61,1.71-3.99,2.61-.86-1.78-2-4.57-2-4.57l-6.28,19.03s1.2.52,1.25,1.68c.04.03.06.04.11.07,13.85-5.15-.21,21.17-4.21,7.61-.05,0-.09.01-.14.02l.05-.04s-.04.01.02-.09c-.08-.06-.08-.12-.08-.12l-47.23,143.1s2.47.07,3.58.05c-1.53,1.84-3.11,1.7-3.11,1.7-.98,2.57-4.95,15.92-6.21,18.15-.02-.47-.38-1.37-.38-1.37l-34.68,106.15-269.87-88.16c.02,5.91,1.13,11.82,3.54,16.6.43.68.87,1.34,1.32,2l106.75,35.23s-.64-3.44-1.13-4.6q9.71-2,22.09,6.18c-2.56.66-4.81,1.24-6.95,1.99l153.17,50.55,17.19-52.08c-3.61-.85-7.27-4.07-3.54-10.63,1.83,2.61,6.15,5.89,6.15,5.89l2.85-8.62s-2.29.57-3.37,1c.1-.9.19-2,.23-2,1.05-.01,2.11-.62,3.69-.66l104.99-318.13ZM298.43,142.51c-.31-.33-.61-.66-.92-.99.61-.69,1.21-1.38,1.82-2.06,1.75,1.2-.17,1.92-.9,3.05ZM317.96,140.15l1.37-4.18c.99,1.49,1.73,2.61,2.53,3.81-1.3,1.85-2.49,1.4-3.9.37ZM417.89,180.98l-5.57-1.82c-.48-1.91-1-3.96-1.55-6.14,2.33-.81,1.46-.5,3.79-1.31,1.08,2.93-.97,7.58,4.21,8.49-.29.26-.59.52-.88.79ZM420.53,177.69c-.86-2.01-1.41-3.3-2.15-5.01,1.48-.36,2.65-.79,3.82-.91,4.14.32,0,4.17-1.67,5.92ZM450.03,186.58c1.61-.54,2.03-.69,2.45-.83.12.55.23,1.09.35,1.64-1.3.58-1.53.18-2.8-.81ZM475.17,198.28c.12-.32.24-.65.36-.97.98.39,1.95.78,2.93,1.16-1.54,1.24-2.54.9-3.29-.19ZM476.64,195.11c.11-2.34,1.67-1.63,2.93-2.03.45,1.18.8,2.08,1.31,3.42l-4.25-1.39ZM497.02,226.18l-1.26,3.86c-1.01-1.65-.65-2.72,1.26-3.86ZM208.41,515.22c2.43-3.31,5.02.14,7.04-1.86,1.09,1.41,2,2.57,2.73,3.52-3.15-.53-6.28-1.06-9.77-1.66ZM281.05,543.66c12.3-1.18,21.22-5.44,30.42,3.54-9.09-.14-18.2,3.15-30.42-3.54ZM408.18,491.01c.49,1.6.9,2.93,1.45,4.7-3.5,1.31-3.86-1.44-1.45-4.7ZM427.83,455.36c-1.69-2.87-.54-4.54,1.58-6.16.6,2.35-.56,4.02-1.58,6.16ZM443.33,403.52c1.96-.97,3.4-1.69,5.56-2.75-1.99,3.45-2.35,3.62-5.56,2.75Z"/>
  <path d="M367.94,265.84c2.32,4.7,6.35,7.99,12.12,9.87,5.6,1.83,10.66,1.56,15.19-.81,4.53-2.37,7.76-6.52,9.7-12.46,1.83-5.6,1.6-10.64-.68-15.15-2.29-4.5-6.22-7.67-11.82-9.49-5.77-1.88-10.94-1.7-15.53.56-4.58,2.26-7.79,6.18-9.62,11.78-1.88,5.77-1.67,11,.64,15.7ZM398.86,245.89c.15.5.05,1.1.08,2.55-.86-1.07-1.31-1.43-1.48-1.91-.13-.37.09-.91.22-1.86.63.62,1.07.85,1.18,1.21Z"/>
  <path d="M410.43,279.73c1.03,2.1,2.41,3.89,4.09,5.41-.8-.98-.04-2,.85-3.02.07,1.11.13,2.22.23,3.85-.22-.12-.4-.23-.56-.35,1.99,1.67,4.41,2.97,7.25,3.9,5.76,1.88,10.91,1.64,15.44-.73,4.53-2.37,7.76-6.52,9.7-12.46,1.83-5.6,1.56-10.66-.81-15.19-2.37-4.53-6.35-7.71-11.95-9.54-5.6-1.83-10.69-1.61-15.27.64-4.59,2.26-7.79,6.18-9.62,11.78-1.88,5.77-1.67,11,.64,15.7ZM431.53,272.16c-.23.26-.4.58-.51.56-.99-.19-2.33-.08-1.5-2.61.85.87,1.43,1.46,2.01,2.05Z"/>
  <path d="M419.7,356.09c-1-1.17-.41-2.52,1.4-4.27l10.1-30.91c-3.66.14-7.34.29-11.19.44-.07-.38-.13-.76-.2-1.13l-6.48,1.13c2.01,1.59,3.99,3.16,6.04,4.77-4.17,7.36-14.32-4.62-18.87,1.58-1.84,6.44,12.5,2.42,8.9,9.86-1.94-1.25-4.19-3.69-5.78-3.54-5.78.54-11.53.06-17.28-.79l-12.06,36.92c-1.77,5.43-4.13,8.89-7.05,10.37-2.93,1.49-7.1,1.34-12.53-.43l-11.19-3.66-13.74-4.49-11.45-3.74c-5.43-1.77-8.86-4.06-10.28-6.88-1.43-2.81-1.23-7.02.6-12.61l6.73-20.61c4.43-13.57,4.25-25.93-.56-37.07-5.44-12.66-15.88-21.52-31.31-26.56-15.1-4.93-28.92-4-41.46,2.79-13.89,7.48-23.94,20.71-30.15,39.71-2.2,6.75-3.56,13.37-4.08,19.86.05.13.1.27.16.4.28.6-.01,1.55-.35,2.54-.04.85-.07,1.69-.07,2.53-12.15-2.46-23.12-1.08-32.9,4.17-11.37,6.05-19.4,16.29-24.11,30.7l-21.94,67.17,43.29-7.54,14.96-45.8c1.77-5.43,4.12-8.89,7.05-10.37,2.92-1.49,7.1-1.34,12.53.43l.31.1.71-2.18c.35.13.7.26,1.06.39-.26.7-.53,1.41-.79,2.11l35.09,11.46c13.4,4.38,25.08,5.38,35.06,3.01.51.62,1.03,1.22,1.57,1.81.13-1.34.25-2.68.48-4,.27-1.63.76-3.23,1.29-5.43,2.02,4.13,1.39,8.16-1.05,10.21,6.03,6.37,13.76,11.1,23.21,14.19l14.76,4.82,12.01,3.92c.41-.11.8-.38,1.16-.96.55.66,1.03,1.25,1.51,1.83l13.82,4.51c13.74,4.49,26.12,4.22,37.15-.81,2.34-1.06,4.56-2.29,6.64-3.69-.37-.49-.78-1.05-1.35-1.82,1.69-.21,2.5.06,2.75.82,8.57-6.22,14.86-15.43,18.85-27.64l9.02-27.62ZM163.61,354.46c.28-1.05.54-1.98.98-3.62q1.54,3.2-.98,3.62ZM161.22,363.02c-.99-1.23-2.94-1.84-1.07-4.41,2.12.94,2.41,2.29,1.07,4.41ZM161.32,351.56c.21,1.5.36,2.6.66,4.76-1.6-1.31-2.53-2.07-3.88-3.18,1.28-.63,2.1-1.03,3.21-1.58ZM144.63,385.46c.34-.24.68-.48.78-.55.52,1.18,1.01,2.29,1.58,3.57-2.43,1.67-.39-3.36-2.36-3.02ZM157.85,367.92c1.02-.48,1.81-.86,2.79-1.33q-.67,2.7-2.79,1.33ZM135.83,417.38c-.24,0-.41-.71-.72-1.3.61-.3,1.2-.77,1.38-.63.39.29.56.9.83,1.37-.5.21-1.01.57-1.49.56ZM176.43,388.1c-.8,1.16-1.34,2.1-2.05,2.87-.16.18-1.23-.16-1.27-.42-.16-1.02-.07-2.1-.07-3.56l3.39,1.11ZM153.16,420.56c.26-3.05,1.41-2.87,2.63-2.55.11.39.23.78.34,1.17-.86.4-1.71.79-2.97,1.38ZM154.19,413.43c-1.01.04-2.7-3.76-4.03-5.72,7.7.15,13.72.26,21,.4-3.42,6.22-10.84,5.09-16.97,5.32ZM208.43,343.88c-.14-1.83-.24-3.05-.33-4.27.77,1.02,2.06,2.05.33,4.27ZM242.36,274.44c-.45-1.09-1.12-2.33.11-3.26.73-.55,2.05-.95,2.68-.6.8.45,1.51,1.66,1.65,2.68.12.92-.57,2.03-.93,3.13-2.05.46-2.92-.52-3.51-1.94ZM220.15,330.09c-.17-.42-.55-.89-.46-1.26.09-.37.62-.65,1.74-1.71.05,1.07.26,1.71.05,2.08-.25.42-.87.6-1.33.89ZM236.94,303.07c-.82-.73-1.45-1.72-2.53-3.1,1.39-.4,2.11-.85,2.67-.71,1.21.29,2.04,2.24,1.4,3.16-.3.43-1.32.85-1.55.65ZM284.17,307.74c-1.31-.35-2.28-.62-3.5-.95q2.1-1.61,3.5.95ZM293.6,270.83c1.21,1.38.49,2.52.04,3.64.02.02.04.04.07.07,0,0,0,0,0,0,0,.03,0,.06-.01.1-.04,0-.07-.02-.11-.03.02-.04.04-.09.05-.13-1.09-.99-.99-2.1-.04-3.64ZM281.83,284.34c.9,1.66.26,2.93-.69,3.92-.31.33-1.24-.05-2.47-.15,1.36-1.62,2.16-2.59,3.15-3.77ZM251.36,301.48c-.22.04-.68-.37-.72-.64-.17-1.4.6-1.91,2.06-2.01.22,1.47-.1,2.4-1.34,2.65ZM241.56,360.32c1.72.72,1.96,1.63,1.28,5.6-.54-2.36-.9-3.93-1.28-5.6ZM247.96,355.36c.55,1.38.88,2.19,1.31,3.26-2.65.16-2.39-.98-1.31-3.26ZM255.99,347.81c-10.35-3.38-12.78-13.47-7.29-30.26,4.59-14.05,11.31-20.46,20.16-19.27.24,0,.51,0,.82-.02-.04.04-.08.09-.11.13.86.15,1.74.35,2.64.65,1.26.41,2.37.93,3.32,1.53.51-.48,1-.95,1.36-1.52.21.14.42.28.63.42-.35.57-.71,1.15-1.07,1.75,3.65,2.86,4.45,7.45,2.38,13.79l-8.64,26.46c-2.16,6.62-6.89,8.73-14.18,6.35ZM252.97,373.45l1.02-3.12c.16.02.33.04.49.06l-1.05,3.2c-.15-.05-.31-.09-.46-.14ZM283.91,387.28c1.18-1.05,2.25-2.01,3.63-3.24q-.39,4.44-3.63,3.24ZM311.62,389.12c-.06-.01-.1-.86.08-1.04,1.09-1.08,1.94-.72,2.44,1.43-.84-.12-1.69-.21-2.52-.4ZM323.96,380.47l1.04-3.19c1.56.23,3.08.41,2.39,2.55-.72,2.24-2.06,1.23-3.43.64ZM337.64,400.94c2.58-1.73,4.04-.53,5.44.9-1.62-.27-3.24-.54-5.44-.9ZM349.93,394.4q-1.32-3.6.27-7.23c2.39,4.29,2.38,4.47-.27,7.23ZM358.08,390.02c.32-.04.64-.09.97-.13.97,1,1.64,1.98-.9,3.15-.03-1.22-.04-2.12-.06-3.02ZM349.96,408.78c1.19.19,1.89.31,2.88.47q-1.43,1.01-2.88-.47ZM380.65,397.72q1.83-2.26,2.99.71c-.93-.22-1.86-.44-2.99-.71ZM399.1,387.21c-.44-1.16-.87-1.89-.94-2.69-.02-.28.84-.71,1.31-1.07.36.71.86,1.38,1.02,2.15.06.29-.68.82-1.38,1.61Z"/>
  <polygon points="578.26 426.12 578.26 426.12 578.27 426.12 578.26 426.12"/>
</svg>